<svg xmlns="http://www.w3.org/2000/svg" xmlns:xlink="http://www.w3.org/1999/xlink" width="48" zoomAndPan="magnify" viewBox="0 0 36 36.000001" height="48" preserveAspectRatio="xMidYMid meet" version="1.0"><defs><g/><clipPath id="bb0b48d492"><path d="M 0.488281 0 L 35.511719 0 L 35.511719 35.027344 L 0.488281 35.027344 Z M 0.488281 0 " clip-rule="nonzero"/></clipPath><clipPath id="71ae7d4300"><path d="M 4.644531 0 L 31.644531 0 L 31.644531 27 L 4.644531 27 Z M 4.644531 0 " clip-rule="nonzero"/></clipPath></defs><g clip-path="url(#bb0b48d492)"><path fill="#ffffff" d="M 0.488281 0 L 35.511719 0 L 35.511719 35.027344 L 0.488281 35.027344 Z M 0.488281 0 " fill-opacity="1" fill-rule="nonzero"/><path fill="#1a1d1f" d="M 0.488281 0 L 35.511719 0 L 35.511719 35.027344 L 0.488281 35.027344 Z M 0.488281 0 " fill-opacity="1" fill-rule="nonzero"/></g><g clip-path="url(#71ae7d4300)"><path fill="#1a1d1f" d="M 26.34375 26.703125 L 9.652344 26.703125 C 6.886719 26.703125 4.644531 24.460938 4.644531 21.695312 L 4.644531 5.007812 C 4.644531 2.242188 6.886719 0 9.652344 0 L 26.34375 0 C 29.109375 0 31.347656 2.242188 31.347656 5.007812 L 31.347656 21.695312 C 31.347656 24.460938 29.109375 26.703125 26.34375 26.703125 Z M 26.34375 26.703125 " fill-opacity="1" fill-rule="nonzero"/></g><path fill="#3ab1fd" d="M 24.671875 13.347656 C 24.671875 9.726562 21.710938 6.675781 18.054688 6.675781 C 14.398438 6.675781 11.320312 9.613281 11.320312 13.234375 C 11.320312 13.351562 11.324219 20.027344 11.324219 20.027344 L 18.054688 20.023438 C 21.710938 20.023438 24.671875 16.972656 24.671875 13.347656 Z M 13.957031 17.40625 L 14.640625 15.167969 C 14.347656 14.628906 14.183594 14.011719 14.183594 13.351562 C 14.183594 11.246094 15.890625 9.539062 17.996094 9.539062 C 20.105469 9.539062 21.8125 11.246094 21.8125 13.351562 C 21.8125 15.457031 20.105469 17.167969 18 17.167969 C 17.421875 17.167969 16.867188 17.039062 16.378906 16.804688 Z M 13.957031 17.40625 " fill-opacity="1" fill-rule="nonzero"/><g fill="#ffffff" fill-opacity="1"><g transform="translate(7.251878, 28.292)"><g><path d="M 2.640625 -2.953125 C 2.640625 -2.847656 2.601562 -2.769531 2.53125 -2.71875 C 2.46875 -2.664062 2.367188 -2.640625 2.234375 -2.640625 C 2.160156 -2.640625 2.085938 -2.640625 2.015625 -2.640625 C 1.953125 -2.640625 1.882812 -2.640625 1.8125 -2.640625 L 1.8125 -1.640625 C 1.8125 -1.429688 1.8125 -1.222656 1.8125 -1.015625 C 1.8125 -0.816406 1.8125 -0.613281 1.8125 -0.40625 C 1.8125 -0.269531 1.773438 -0.164062 1.703125 -0.09375 C 1.640625 -0.03125 1.546875 0 1.421875 0 L 1.328125 0 C 1.054688 0 0.921875 -0.132812 0.921875 -0.40625 C 0.929688 -0.601562 0.9375 -0.804688 0.9375 -1.015625 C 0.9375 -1.222656 0.9375 -1.429688 0.9375 -1.640625 C 0.9375 -1.804688 0.9375 -1.972656 0.9375 -2.140625 C 0.9375 -2.304688 0.9375 -2.472656 0.9375 -2.640625 C 0.863281 -2.640625 0.789062 -2.640625 0.71875 -2.640625 C 0.65625 -2.640625 0.59375 -2.640625 0.53125 -2.640625 C 0.394531 -2.640625 0.289062 -2.664062 0.21875 -2.71875 C 0.15625 -2.769531 0.125 -2.847656 0.125 -2.953125 C 0.125 -3.160156 0.253906 -3.265625 0.515625 -3.265625 L 2.25 -3.265625 C 2.507812 -3.265625 2.640625 -3.160156 2.640625 -2.953125 Z M 2.640625 -2.953125 "/></g></g></g><g fill="#ffffff" fill-opacity="1"><g transform="translate(10.017592, 28.292)"><g><path d="M 0.984375 0.046875 C 0.828125 0.046875 0.6875 0.0195312 0.5625 -0.03125 C 0.4375 -0.0820312 0.332031 -0.160156 0.25 -0.265625 C 0.175781 -0.367188 0.140625 -0.503906 0.140625 -0.671875 C 0.140625 -0.960938 0.265625 -1.179688 0.515625 -1.328125 C 0.765625 -1.484375 1.15625 -1.550781 1.6875 -1.53125 L 1.6875 -1.6875 C 1.6875 -1.863281 1.660156 -1.984375 1.609375 -2.046875 C 1.566406 -2.109375 1.492188 -2.140625 1.390625 -2.140625 C 1.328125 -2.140625 1.269531 -2.128906 1.21875 -2.109375 C 1.175781 -2.097656 1.140625 -2.070312 1.109375 -2.03125 C 1.066406 -1.957031 1.03125 -1.894531 1 -1.84375 C 0.96875 -1.789062 0.929688 -1.75 0.890625 -1.71875 C 0.859375 -1.695312 0.800781 -1.6875 0.71875 -1.6875 L 0.671875 -1.6875 C 0.546875 -1.6875 0.441406 -1.722656 0.359375 -1.796875 C 0.273438 -1.867188 0.253906 -1.96875 0.296875 -2.09375 C 0.347656 -2.28125 0.46875 -2.421875 0.65625 -2.515625 C 0.84375 -2.609375 1.109375 -2.65625 1.453125 -2.65625 C 2.148438 -2.65625 2.5 -2.335938 2.5 -1.703125 C 2.5 -1.421875 2.5 -1.175781 2.5 -0.96875 C 2.507812 -0.757812 2.515625 -0.570312 2.515625 -0.40625 C 2.523438 -0.28125 2.5 -0.179688 2.4375 -0.109375 C 2.375 -0.0351562 2.273438 0 2.140625 0 L 2.109375 0 C 1.867188 0 1.738281 -0.0351562 1.71875 -0.109375 C 1.707031 -0.128906 1.703125 -0.148438 1.703125 -0.171875 C 1.703125 -0.191406 1.695312 -0.207031 1.6875 -0.21875 C 1.59375 -0.132812 1.484375 -0.0664062 1.359375 -0.015625 C 1.242188 0.0234375 1.117188 0.046875 0.984375 0.046875 Z M 1.234375 -0.484375 C 1.335938 -0.484375 1.425781 -0.503906 1.5 -0.546875 C 1.582031 -0.585938 1.648438 -0.648438 1.703125 -0.734375 L 1.703125 -1.15625 C 1.554688 -1.15625 1.421875 -1.144531 1.296875 -1.125 C 1.179688 -1.101562 1.082031 -1.066406 1 -1.015625 C 0.925781 -0.960938 0.890625 -0.890625 0.890625 -0.796875 C 0.890625 -0.703125 0.921875 -0.625 0.984375 -0.5625 C 1.046875 -0.507812 1.128906 -0.484375 1.234375 -0.484375 Z M 1.234375 -0.484375 "/></g></g></g><g fill="#ffffff" fill-opacity="1"><g transform="translate(12.764428, 28.292)"><g><path d="M 0.640625 0 C 0.378906 0 0.25 -0.132812 0.25 -0.40625 C 0.25 -0.632812 0.25 -0.859375 0.25 -1.078125 C 0.257812 -1.296875 0.265625 -1.523438 0.265625 -1.765625 C 0.265625 -1.972656 0.257812 -2.179688 0.25 -2.390625 C 0.25 -2.597656 0.25 -2.804688 0.25 -3.015625 C 0.25 -3.285156 0.378906 -3.421875 0.640625 -3.421875 L 0.671875 -3.421875 C 0.941406 -3.421875 1.078125 -3.285156 1.078125 -3.015625 C 1.078125 -2.804688 1.078125 -2.597656 1.078125 -2.390625 C 1.078125 -2.179688 1.078125 -1.972656 1.078125 -1.765625 C 1.066406 -1.523438 1.0625 -1.296875 1.0625 -1.078125 C 1.070312 -0.859375 1.078125 -0.632812 1.078125 -0.40625 C 1.078125 -0.132812 0.941406 0 0.671875 0 Z M 0.640625 0 "/></g></g></g><g fill="#ffffff" fill-opacity="1"><g transform="translate(14.090649, 28.292)"><g><path d="M 2.5625 -0.4375 C 2.601562 -0.300781 2.59375 -0.191406 2.53125 -0.109375 C 2.46875 -0.0351562 2.363281 0 2.21875 0 L 2.078125 0 C 1.847656 0 1.695312 -0.125 1.625 -0.375 C 1.582031 -0.550781 1.535156 -0.691406 1.484375 -0.796875 C 1.441406 -0.898438 1.394531 -0.96875 1.34375 -1 C 1.289062 -1.039062 1.222656 -1.0625 1.140625 -1.0625 L 1.078125 -1.0625 C 1.078125 -0.957031 1.078125 -0.847656 1.078125 -0.734375 C 1.078125 -0.628906 1.078125 -0.519531 1.078125 -0.40625 C 1.078125 -0.132812 0.941406 0 0.671875 0 L 0.640625 0 C 0.378906 0 0.25 -0.132812 0.25 -0.40625 C 0.25 -0.632812 0.25 -0.859375 0.25 -1.078125 C 0.257812 -1.296875 0.265625 -1.523438 0.265625 -1.765625 C 0.265625 -1.972656 0.257812 -2.179688 0.25 -2.390625 C 0.25 -2.597656 0.25 -2.804688 0.25 -3.015625 C 0.25 -3.285156 0.378906 -3.421875 0.640625 -3.421875 L 0.671875 -3.421875 C 0.941406 -3.421875 1.078125 -3.285156 1.078125 -3.015625 C 1.078125 -2.804688 1.078125 -2.597656 1.078125 -2.390625 C 1.078125 -2.179688 1.078125 -1.972656 1.078125 -1.765625 L 1.078125 -1.578125 C 1.179688 -1.640625 1.273438 -1.726562 1.359375 -1.84375 C 1.453125 -1.96875 1.519531 -2.101562 1.5625 -2.25 C 1.601562 -2.375 1.65625 -2.460938 1.71875 -2.515625 C 1.789062 -2.578125 1.882812 -2.609375 2 -2.609375 L 2.09375 -2.609375 C 2.25 -2.609375 2.359375 -2.5625 2.421875 -2.46875 C 2.492188 -2.382812 2.492188 -2.273438 2.421875 -2.140625 C 2.328125 -1.984375 2.222656 -1.84375 2.109375 -1.71875 C 1.992188 -1.59375 1.875 -1.507812 1.75 -1.46875 L 1.75 -1.4375 C 1.882812 -1.425781 2 -1.390625 2.09375 -1.328125 C 2.1875 -1.265625 2.265625 -1.164062 2.328125 -1.03125 C 2.398438 -0.894531 2.476562 -0.695312 2.5625 -0.4375 Z M 2.5625 -0.4375 "/></g></g></g><g fill="#ffffff" fill-opacity="1"><g transform="translate(16.917719, 28.292)"><g/></g></g><g fill="#ffffff" fill-opacity="1"><g transform="translate(18.097631, 28.292)"><g><path d="M 1.59375 0.046875 C 1.125 0.046875 0.78125 -0.09375 0.5625 -0.375 C 0.34375 -0.65625 0.234375 -1.078125 0.234375 -1.640625 C 0.234375 -2.753906 0.695312 -3.3125 1.625 -3.3125 C 1.96875 -3.3125 2.242188 -3.226562 2.453125 -3.0625 C 2.671875 -2.894531 2.789062 -2.648438 2.8125 -2.328125 C 2.832031 -2.191406 2.800781 -2.085938 2.71875 -2.015625 C 2.644531 -1.953125 2.539062 -1.921875 2.40625 -1.921875 L 2.390625 -1.921875 C 2.253906 -1.921875 2.15625 -1.957031 2.09375 -2.03125 C 2.039062 -2.101562 2.003906 -2.207031 1.984375 -2.34375 C 1.960938 -2.46875 1.921875 -2.554688 1.859375 -2.609375 C 1.804688 -2.660156 1.71875 -2.6875 1.59375 -2.6875 C 1.425781 -2.6875 1.304688 -2.609375 1.234375 -2.453125 C 1.171875 -2.296875 1.140625 -2.023438 1.140625 -1.640625 C 1.140625 -1.359375 1.15625 -1.144531 1.1875 -1 C 1.226562 -0.851562 1.285156 -0.75 1.359375 -0.6875 C 1.429688 -0.632812 1.507812 -0.609375 1.59375 -0.609375 C 1.695312 -0.609375 1.773438 -0.625 1.828125 -0.65625 C 1.890625 -0.6875 1.9375 -0.742188 1.96875 -0.828125 C 2.007812 -0.960938 2.054688 -1.0625 2.109375 -1.125 C 2.171875 -1.1875 2.265625 -1.21875 2.390625 -1.21875 C 2.523438 -1.21875 2.628906 -1.179688 2.703125 -1.109375 C 2.785156 -1.035156 2.8125 -0.929688 2.78125 -0.796875 C 2.738281 -0.503906 2.613281 -0.289062 2.40625 -0.15625 C 2.195312 -0.0195312 1.925781 0.046875 1.59375 0.046875 Z M 1.59375 0.046875 "/></g></g></g><g fill="#ffffff" fill-opacity="1"><g transform="translate(21.094609, 28.292)"><g><path d="M 2.59375 -0.40625 C 2.59375 -0.132812 2.460938 0 2.203125 0 L 2.1875 0 C 1.914062 0 1.78125 -0.132812 1.78125 -0.40625 C 1.78125 -0.625 1.78125 -0.832031 1.78125 -1.03125 C 1.789062 -1.226562 1.796875 -1.40625 1.796875 -1.5625 C 1.796875 -1.71875 1.765625 -1.828125 1.703125 -1.890625 C 1.648438 -1.953125 1.570312 -1.976562 1.46875 -1.96875 C 1.28125 -1.96875 1.148438 -1.875 1.078125 -1.6875 C 1.078125 -1.46875 1.078125 -1.25 1.078125 -1.03125 C 1.078125 -0.820312 1.078125 -0.613281 1.078125 -0.40625 C 1.078125 -0.132812 0.941406 0 0.671875 0 L 0.640625 0 C 0.378906 0 0.25 -0.132812 0.25 -0.40625 C 0.25 -0.625 0.25 -0.84375 0.25 -1.0625 C 0.257812 -1.289062 0.265625 -1.523438 0.265625 -1.765625 C 0.265625 -1.972656 0.257812 -2.175781 0.25 -2.375 C 0.25 -2.582031 0.25 -2.796875 0.25 -3.015625 C 0.25 -3.285156 0.378906 -3.421875 0.640625 -3.421875 L 0.671875 -3.421875 C 0.941406 -3.421875 1.078125 -3.3125 1.078125 -3.09375 C 1.078125 -3.03125 1.078125 -2.972656 1.078125 -2.921875 C 1.078125 -2.867188 1.078125 -2.820312 1.078125 -2.78125 C 1.078125 -2.675781 1.070312 -2.570312 1.0625 -2.46875 C 1.0625 -2.375 1.054688 -2.273438 1.046875 -2.171875 C 1.140625 -2.335938 1.253906 -2.457031 1.390625 -2.53125 C 1.523438 -2.613281 1.6875 -2.65625 1.875 -2.65625 C 2.113281 -2.65625 2.296875 -2.566406 2.421875 -2.390625 C 2.546875 -2.222656 2.601562 -1.945312 2.59375 -1.5625 C 2.59375 -1.394531 2.59375 -1.210938 2.59375 -1.015625 C 2.59375 -0.828125 2.59375 -0.625 2.59375 -0.40625 Z M 2.59375 -0.40625 "/></g></g></g><g fill="#ffffff" fill-opacity="1"><g transform="translate(23.968875, 28.292)"><g><path d="M 0.984375 0.046875 C 0.828125 0.046875 0.6875 0.0195312 0.5625 -0.03125 C 0.4375 -0.0820312 0.332031 -0.160156 0.25 -0.265625 C 0.175781 -0.367188 0.140625 -0.503906 0.140625 -0.671875 C 0.140625 -0.960938 0.265625 -1.179688 0.515625 -1.328125 C 0.765625 -1.484375 1.15625 -1.550781 1.6875 -1.53125 L 1.6875 -1.6875 C 1.6875 -1.863281 1.660156 -1.984375 1.609375 -2.046875 C 1.566406 -2.109375 1.492188 -2.140625 1.390625 -2.140625 C 1.328125 -2.140625 1.269531 -2.128906 1.21875 -2.109375 C 1.175781 -2.097656 1.140625 -2.070312 1.109375 -2.03125 C 1.066406 -1.957031 1.03125 -1.894531 1 -1.84375 C 0.96875 -1.789062 0.929688 -1.75 0.890625 -1.71875 C 0.859375 -1.695312 0.800781 -1.6875 0.71875 -1.6875 L 0.671875 -1.6875 C 0.546875 -1.6875 0.441406 -1.722656 0.359375 -1.796875 C 0.273438 -1.867188 0.253906 -1.96875 0.296875 -2.09375 C 0.347656 -2.28125 0.46875 -2.421875 0.65625 -2.515625 C 0.84375 -2.609375 1.109375 -2.65625 1.453125 -2.65625 C 2.148438 -2.65625 2.5 -2.335938 2.5 -1.703125 C 2.5 -1.421875 2.5 -1.175781 2.5 -0.96875 C 2.507812 -0.757812 2.515625 -0.570312 2.515625 -0.40625 C 2.523438 -0.28125 2.5 -0.179688 2.4375 -0.109375 C 2.375 -0.0351562 2.273438 0 2.140625 0 L 2.109375 0 C 1.867188 0 1.738281 -0.0351562 1.71875 -0.109375 C 1.707031 -0.128906 1.703125 -0.148438 1.703125 -0.171875 C 1.703125 -0.191406 1.695312 -0.207031 1.6875 -0.21875 C 1.59375 -0.132812 1.484375 -0.0664062 1.359375 -0.015625 C 1.242188 0.0234375 1.117188 0.046875 0.984375 0.046875 Z M 1.234375 -0.484375 C 1.335938 -0.484375 1.425781 -0.503906 1.5 -0.546875 C 1.582031 -0.585938 1.648438 -0.648438 1.703125 -0.734375 L 1.703125 -1.15625 C 1.554688 -1.15625 1.421875 -1.144531 1.296875 -1.125 C 1.179688 -1.101562 1.082031 -1.066406 1 -1.015625 C 0.925781 -0.960938 0.890625 -0.890625 0.890625 -0.796875 C 0.890625 -0.703125 0.921875 -0.625 0.984375 -0.5625 C 1.046875 -0.507812 1.128906 -0.484375 1.234375 -0.484375 Z M 1.234375 -0.484375 "/></g></g></g><g fill="#ffffff" fill-opacity="1"><g transform="translate(26.715712, 28.292)"><g><path d="M 1.5 -0.578125 C 1.632812 -0.578125 1.738281 -0.566406 1.8125 -0.546875 C 1.894531 -0.523438 1.9375 -0.46875 1.9375 -0.375 C 1.945312 -0.269531 1.929688 -0.179688 1.890625 -0.109375 C 1.847656 -0.0351562 1.773438 0.0078125 1.671875 0.03125 C 1.578125 0.0507812 1.472656 0.0625 1.359375 0.0625 C 1.171875 0.0625 1.003906 0.03125 0.859375 -0.03125 C 0.710938 -0.09375 0.597656 -0.191406 0.515625 -0.328125 C 0.441406 -0.460938 0.410156 -0.644531 0.421875 -0.875 C 0.421875 -1.007812 0.421875 -1.148438 0.421875 -1.296875 C 0.421875 -1.453125 0.421875 -1.609375 0.421875 -1.765625 L 0.421875 -2 C 0.148438 -2 0.015625 -2.101562 0.015625 -2.3125 C 0.015625 -2.507812 0.0820312 -2.609375 0.21875 -2.609375 L 0.421875 -2.609375 C 0.421875 -2.648438 0.414062 -2.6875 0.40625 -2.71875 C 0.40625 -2.757812 0.40625 -2.800781 0.40625 -2.84375 C 0.40625 -3.070312 0.515625 -3.222656 0.734375 -3.296875 C 0.867188 -3.335938 0.976562 -3.332031 1.0625 -3.28125 C 1.144531 -3.238281 1.1875 -3.15625 1.1875 -3.03125 L 1.1875 -2.609375 L 1.515625 -2.609375 C 1.773438 -2.609375 1.90625 -2.507812 1.90625 -2.3125 C 1.90625 -2.113281 1.785156 -2.015625 1.546875 -2.015625 L 1.1875 -2.015625 C 1.1875 -1.972656 1.179688 -1.929688 1.171875 -1.890625 C 1.171875 -1.847656 1.171875 -1.804688 1.171875 -1.765625 C 1.171875 -1.628906 1.171875 -1.492188 1.171875 -1.359375 C 1.171875 -1.222656 1.171875 -1.09375 1.171875 -0.96875 C 1.171875 -0.695312 1.28125 -0.566406 1.5 -0.578125 Z M 1.5 -0.578125 "/></g></g></g></svg>