<svg id="Layer_1" enable-background="new 0 0 512 512" height="512" viewBox="0 0 512 512" width="512" xmlns="http://www.w3.org/2000/svg"><path clip-rule="evenodd" d="m256 404.872c15.085 0 27.426-12.341 27.426-27.426v-94.021h94.021c15.084 0 27.426-12.341 27.426-27.426 0-15.084-12.341-27.426-27.426-27.426h-94.021v-94.021c0-15.084-12.341-27.425-27.425-27.425-15.084 0-27.426 12.341-27.426 27.425v94.021h-94.021c-15.084 0-27.425 12.341-27.425 27.426 0 15.084 12.341 27.426 27.425 27.426h94.021v94.021c-.001 15.085 12.341 27.426 27.425 27.426zm0-388.872c132.548 0 240 107.452 240 240s-107.452 240-240 240-240-107.452-240-240 107.452-240 240-240z" fill-rule="evenodd"/></svg>