<?xml version="1.0" encoding="UTF-8"?>
<svg version="1.1" xmlns="http://www.w3.org/2000/svg" width="500" height="500">
<path d="M0 0 C0.90313934 -0.00705963 1.80627869 -0.01411926 2.73678589 -0.02139282 C39.87047065 -0.24589927 39.87047065 -0.24589927 56.171875 3.203125 C57.18233887 3.40711914 58.19280273 3.61111328 59.23388672 3.82128906 C104.55661345 13.09783108 142.67766625 32.76750905 178.171875 62.203125 C178.83832031 62.73292969 179.50476563 63.26273438 180.19140625 63.80859375 C181.55400453 64.89675771 182.87049862 66.04243796 184.171875 67.203125 C184.171875 67.863125 184.171875 68.523125 184.171875 69.203125 C184.708125 69.409375 185.244375 69.615625 185.796875 69.828125 C189.09165509 71.73562926 191.76551128 74.25131884 194.171875 77.203125 C194.171875 77.863125 194.171875 78.523125 194.171875 79.203125 C194.831875 79.203125 195.491875 79.203125 196.171875 79.203125 C197.9140625 81.08203125 197.9140625 81.08203125 200.046875 83.765625 C200.83835937 84.75691406 201.62984375 85.74820313 202.4453125 86.76953125 C202.87811523 87.31625488 203.31091797 87.86297852 203.75683594 88.42626953 C205.29019588 90.35169976 206.84278132 92.26051481 208.3984375 94.16796875 C209.48981406 95.51283363 210.58096218 96.85788393 211.671875 98.203125 C212.20022949 98.84967041 212.72858398 99.49621582 213.27294922 100.16235352 C215.41358082 102.82011185 217.08349806 104.93799417 218.171875 108.203125 C217.22241211 109.98632812 217.22241211 109.98632812 215.69921875 111.984375 C215.13581787 112.73485107 214.57241699 113.48532715 213.99194336 114.25854492 C213.3706958 115.06525635 212.74944824 115.87196777 212.109375 116.703125 C210.81752103 118.41782765 209.52586003 120.1326757 208.234375 121.84765625 C207.5640625 122.73018066 206.89375 123.61270508 206.203125 124.52197266 C202.97193616 128.78698658 199.78930262 133.08733709 196.609375 137.390625 C196.03888428 138.15503906 195.46839355 138.91945312 194.88061523 139.70703125 C193.8014691 141.16313611 192.73716765 142.63039133 191.68994141 144.10961914 C190.171875 146.203125 190.171875 146.203125 188.49365234 148.15405273 C186.88837766 150.19298348 185.87142064 151.69926173 185.171875 154.203125 C186.029973 158.15195393 187.93788475 161.3980311 189.921875 164.890625 C190.99104064 166.94311447 192.05080352 169.00052673 193.1015625 171.0625 C193.89385254 172.6084082 193.89385254 172.6084082 194.70214844 174.18554688 C215.73465585 217.36856874 214.08612888 271.57335012 199.171875 316.203125 C190.36365828 341.70433308 176.31188227 364.32755074 158.08984375 384.09765625 C156.52090235 385.81997685 155.05228741 387.56421428 153.609375 389.390625 C150.41969152 393.07102901 146.90656675 396.08620181 143.171875 399.203125 C142.63159668 399.66638184 142.09131836 400.12963867 141.53466797 400.60693359 C131.36826023 409.31510152 120.80758055 416.59636611 109.171875 423.203125 C108.50768555 423.58339844 107.84349609 423.96367187 107.15917969 424.35546875 C81.2056066 439.09615402 51.0201145 447.27540945 21.171875 448.203125 C20.15609375 448.24308594 19.1403125 448.28304688 18.09375 448.32421875 C-11.18131367 448.91388235 -43.04307558 443.95673281 -69.1640625 430.20703125 C-73.61679606 428.529095 -77.45327832 430.32816882 -81.7668457 431.92138672 C-82.72166336 432.27200165 -83.67648102 432.62261658 -84.66023254 432.9838562 C-86.19160103 433.55258957 -86.19160103 433.55258957 -87.75390625 434.1328125 C-88.81546432 434.52381134 -89.8770224 434.91481018 -90.9707489 435.31765747 C-94.36199393 436.56769194 -97.75131306 437.82285992 -101.140625 439.078125 C-103.41068429 439.91569804 -105.68086528 440.75294128 -107.95117188 441.58984375 C-112.13526182 443.13325832 -116.31885232 444.67800015 -120.5012207 446.22607422 C-121.86553726 446.72950348 -121.86553726 446.72950348 -123.25741577 447.24310303 C-124.90948558 447.86006246 -126.55742284 448.48826781 -128.19985962 449.13043213 C-132.61274371 450.85071431 -135.2402491 451.79028207 -139.828125 450.203125 C-142.08793772 448.59716672 -144.04165845 447.04990853 -146.078125 445.203125 C-146.6453125 444.70474121 -147.2125 444.20635742 -147.796875 443.69287109 C-148.94682862 442.67921547 -150.092089 441.66020887 -151.23242188 440.63574219 C-152.62269825 439.38755649 -154.02879279 438.1570342 -155.4375 436.9296875 C-176.18648157 418.68956971 -193.31182195 397.29848661 -206.828125 373.203125 C-207.19357422 372.56117188 -207.55902344 371.91921875 -207.93554688 371.2578125 C-222.30096481 345.86313956 -231.28977119 317.99460814 -235.828125 289.203125 C-236.00472656 288.10548828 -236.18132812 287.00785156 -236.36328125 285.87695312 C-238.08941985 273.87412509 -238.22538737 261.93932585 -238.203125 249.828125 C-238.20291351 248.76686401 -238.20270203 247.70560303 -238.20248413 246.61218262 C-238.17037184 230.46350328 -237.428527 215.00407954 -233.828125 199.203125 C-233.63557129 198.31431641 -233.44301758 197.42550781 -233.24462891 196.50976562 C-231.96689144 190.68148948 -230.48752009 184.93391204 -228.828125 179.203125 C-228.61994141 178.47818848 -228.41175781 177.75325195 -228.19726562 177.00634766 C-218.23788233 143.1367834 -200.51218361 111.93208733 -177.09130859 85.62939453 C-175.47429787 83.80361628 -173.90551456 81.93814611 -172.328125 80.078125 C-164.24053853 70.910885 -155.46288727 62.71725893 -145.828125 55.203125 C-144.59591878 54.20756989 -143.36417779 53.21143878 -142.1328125 52.21484375 C-102.86360978 20.8499549 -50.58607312 0.26470901 0 0 Z M-74.828125 43.203125 C-75.66682129 43.54714355 -76.50551758 43.89116211 -77.36962891 44.24560547 C-99.71649938 53.45837448 -120.2829061 66.89556989 -137.91015625 83.4609375 C-139.828125 85.203125 -139.828125 85.203125 -142.828125 87.203125 C-142.828125 87.863125 -142.828125 88.523125 -142.828125 89.203125 C-143.446875 89.450625 -144.065625 89.698125 -144.703125 89.953125 C-147.17881187 91.40941139 -147.77937502 92.58125006 -148.828125 95.203125 C-149.488125 95.203125 -150.148125 95.203125 -150.828125 95.203125 C-150.828125 95.863125 -150.828125 96.523125 -150.828125 97.203125 C-151.488125 97.203125 -152.148125 97.203125 -152.828125 97.203125 C-154.26625173 98.77253301 -155.6284255 100.41186535 -156.953125 102.078125 C-157.76265625 103.09390625 -158.5721875 104.1096875 -159.40625 105.15625 C-160.20546875 106.16171875 -161.0046875 107.1671875 -161.828125 108.203125 C-162.48296875 108.98171875 -163.1378125 109.7603125 -163.8125 110.5625 C-170.24375473 118.2693755 -175.58772255 126.66128754 -180.828125 135.203125 C-181.25915527 135.904375 -181.69018555 136.605625 -182.13427734 137.328125 C-200.09475524 166.9833153 -211.81590587 203.71868844 -212.03125 238.5859375 C-212.03826431 239.35453598 -212.04527863 240.12313446 -212.05250549 240.9150238 C-212.06991819 243.3861179 -212.07635936 245.85697177 -212.078125 248.328125 C-212.07879974 249.17527069 -212.07947449 250.02241638 -212.08016968 250.89523315 C-212.00967576 306.70072561 -191.8305096 358.49353426 -154.828125 400.203125 C-154.12647217 401.00532471 -154.12647217 401.00532471 -153.41064453 401.82373047 C-149.24049772 406.62729988 -149.24049772 406.62729988 -144.828125 411.203125 C-144.168125 411.203125 -143.508125 411.203125 -142.828125 411.203125 C-142.828125 411.863125 -142.828125 412.523125 -142.828125 413.203125 C-138.36303938 417.95941186 -132.815998 421.84963172 -127.703125 425.890625 C-127.11772949 426.3539624 -126.53233398 426.8172998 -125.92919922 427.29467773 C-124.24204793 428.61574903 -122.53642048 429.90958637 -120.828125 431.203125 C-119.79945312 432.01394531 -118.77078125 432.82476562 -117.7109375 433.66015625 C-114.99747721 435.50154363 -114.99747721 435.50154363 -112.3828125 434.734375 C-109.17487694 432.8115757 -106.03767656 430.81637097 -102.953125 428.703125 C-101.76842149 427.90075762 -100.58351338 427.0986923 -99.3984375 426.296875 C-98.7084668 425.82830078 -98.01849609 425.35972656 -97.30761719 424.87695312 C-94.26911217 422.82575281 -91.21648868 420.79601016 -88.1640625 418.765625 C-78.18746559 412.12461867 -68.26045223 405.41006779 -58.328125 398.703125 C-46.18384177 390.502528 -34.03341788 382.31270643 -21.828125 374.203125 C-20.85375488 373.55553223 -19.87938477 372.90793945 -18.87548828 372.24072266 C-17.50046143 371.32685791 -17.50046143 371.32685791 -16.09765625 370.39453125 C-5.50640835 363.35506872 5.06352716 356.28388577 15.60025024 349.16305542 C16.84946234 348.31940881 18.09943456 347.47688656 19.35018921 346.63552856 C21.1015719 345.45689114 22.84997026 344.27395336 24.59765625 343.08984375 C25.60223877 342.41139404 26.60682129 341.73294434 27.6418457 341.03393555 C30.37668312 339.15663508 30.37668312 339.15663508 33.171875 336.203125 C20.301875 335.873125 7.431875 335.543125 -5.828125 335.203125 C-2.198125 332.233125 1.431875 329.263125 5.171875 326.203125 C7.19232038 324.39234848 9.19684317 322.5633294 11.171875 320.703125 C15.77809108 316.40965348 20.55005585 312.39873553 25.45703125 308.44921875 C28.27860995 306.1148191 30.97778212 303.68321902 33.671875 301.203125 C38.11914612 297.10961409 42.71904963 293.27870001 47.421875 289.484375 C51.21092907 286.34118242 54.80456852 283.00153905 58.42578125 279.66796875 C61.09062666 277.27605203 63.82019325 275.01057616 66.609375 272.765625 C70.60411754 269.54369183 74.41739609 266.19654889 78.171875 262.703125 C82.79130827 258.40530255 87.56709473 254.37623019 92.48046875 250.4140625 C96.84034427 246.83251018 101.12443356 243.13643035 105.171875 239.203125 C105.171875 238.873125 105.171875 238.543125 105.171875 238.203125 C84.876875 237.708125 84.876875 237.708125 64.171875 237.203125 C70.10772114 231.86086347 75.93693984 226.72205415 82.12109375 221.71875 C85.69243999 218.77387551 89.18401987 215.74595524 92.671875 212.703125 C96.95393792 208.96897332 101.25519335 205.27853396 105.671875 201.703125 C110.70536041 197.62555373 115.59520809 193.39806585 120.47998047 189.14501953 C126.13606871 184.22300408 131.84955848 179.37240367 137.58349609 174.54150391 C140.26096453 172.28545073 142.93560457 170.02605894 145.609375 167.765625 C146.14175781 167.31574219 146.67414063 166.86585938 147.22265625 166.40234375 C150.66408505 163.49036554 154.08858541 160.55941233 157.50585938 157.61914062 C162.16369426 153.61147244 166.83491136 149.63470887 171.609375 145.765625 C176.1556734 142.07049093 180.61427805 138.28315992 185.046875 134.453125 C185.67779053 133.90986572 186.30870605 133.36660645 186.95874023 132.80688477 C190.50627087 129.72876194 193.89445514 126.56777657 197.171875 123.203125 C194.29802781 119.42932566 191.40835617 115.6685514 188.50048828 111.92089844 C187.37140481 110.4610985 186.25290689 108.99312093 185.13671875 107.5234375 C174.04494004 93.36653505 160.75591105 80.70310792 146.171875 70.203125 C145.10710937 69.42839844 144.04234375 68.65367188 142.9453125 67.85546875 C104.42325421 40.53386293 59.84309747 25.65309278 12.546875 25.890625 C11.37516251 25.89385773 11.37516251 25.89385773 10.17977905 25.89715576 C-19.42954071 26.02743903 -47.50631548 31.69781315 -74.828125 43.203125 Z " fill="#02C208" transform="translate(237.828125,-0.203125)"/>
<path d="M0 0 C1.35158203 0.29003906 1.35158203 0.29003906 2.73046875 0.5859375 C34.43861899 7.59374151 63.28275633 22.03520916 88 43 C88.92554688 43.70382813 89.85109375 44.40765625 90.8046875 45.1328125 C91.52914063 45.74898437 92.25359375 46.36515625 93 47 C93 47.66 93 48.32 93 49 C91.19168198 48.97549019 91.19168198 48.97549019 89.34683228 48.95048523 C77.95952669 48.80468287 66.57353932 48.72780839 55.18528175 48.71759319 C49.3307604 48.71014843 43.47843719 48.67882648 37.62451172 48.59204102 C31.96971999 48.50910101 26.31792066 48.4900533 20.6626091 48.51441383 C18.51043207 48.51262833 16.35814569 48.48821237 14.20650101 48.44031334 C3.21239625 47.78820441 3.21239625 47.78820441 -6.86631775 51.27343559 C-10.42778784 54.70745657 -12.66896268 58.67656527 -15 63 C-16.1497621 64.5494165 -17.32487316 66.08111598 -18.546875 67.57421875 C-19.07442383 68.25202393 -19.60197266 68.9298291 -20.14550781 69.62817383 C-20.93973145 70.64754028 -20.93973145 70.64754028 -21.75 71.6875 C-22.62543457 72.81224731 -22.62543457 72.81224731 -23.51855469 73.9597168 C-25.95583566 77.09108167 -28.39396709 80.22178396 -30.83203125 83.35253906 C-39.44092749 94.40698713 -39.44092749 94.40698713 -48 105.5 C-53.69023827 112.91032663 -59.43207951 120.28026814 -65.17236328 127.65185547 C-66.98986598 129.98697983 -68.80575788 132.3233471 -70.62109375 134.66015625 C-75.98028989 141.55785663 -81.3453624 148.45032386 -86.75 155.3125 C-90.95488921 160.65233047 -95.10878206 166.0294238 -99.24609375 171.421875 C-102.60579008 175.79413425 -105.99019481 180.14716772 -109.375 184.5 C-109.97030518 185.26602539 -110.56561035 186.03205078 -111.17895508 186.82128906 C-111.74638428 187.55057617 -112.31381348 188.27986328 -112.8984375 189.03125 C-113.40036621 189.67642578 -113.90229492 190.32160156 -114.41943359 190.98632812 C-116.26410839 193.33647915 -118.13363168 195.6670396 -120 198 C-90.795 198.495 -90.795 198.495 -61 199 C-62.7746563 202.5493126 -64.01128795 204.25921359 -66.73318481 206.97369385 C-67.89846207 208.14309509 -67.89846207 208.14309509 -69.08728027 209.33612061 C-70.36689636 210.60495087 -70.36689636 210.60495087 -71.67236328 211.89941406 C-72.56998383 212.79732666 -73.46760437 213.69523926 -74.39242554 214.62036133 C-76.85058047 217.07908978 -79.31485045 219.53160549 -81.78026438 221.98305225 C-84.35699408 224.54727454 -86.92805644 227.11716645 -89.49972534 229.6864624 C-94.3688975 234.54941983 -99.24314518 239.40725677 -104.11923683 244.26327491 C-109.67088529 249.79256418 -115.21685188 255.32753748 -120.76234841 260.86299562 C-132.16859056 272.24833593 -143.58268891 283.6257581 -155 295 C-140.81 295.33 -126.62 295.66 -112 296 C-116.54267142 305.08534283 -124.40187138 312.66103872 -131.05322266 320.30322266 C-139.84985895 330.41103152 -148.43854219 340.69282194 -157 351 C-161.53364694 349.55484843 -164.25796961 347.18923754 -167.6875 343.9375 C-171.06920684 340.58041094 -171.06920684 340.58041094 -175 338 C-175 337.34 -175 336.68 -175 336 C-175.5465625 335.78601563 -176.093125 335.57203125 -176.65625 335.3515625 C-179.81745099 333.52860326 -182.07024567 331.04856501 -184.5 328.375 C-185.28177612 327.51817627 -185.28177612 327.51817627 -186.0793457 326.64404297 C-216.05254264 293.20461911 -234.32765479 249.56758819 -236.5625 204.6875 C-236.60568359 203.90955078 -236.64886719 203.13160156 -236.69335938 202.33007812 C-238.51131918 167.15399866 -230.85401104 131.9466766 -214 101 C-213.67918457 100.39994141 -213.35836914 99.79988281 -213.02783203 99.18164062 C-188.01413398 52.58425899 -145.23183042 19.50703516 -95 4 C-89.71433637 2.40757926 -84.40312537 1.12380845 -79 0 C-78.33323242 -0.14953125 -77.66646484 -0.2990625 -76.97949219 -0.453125 C-52.85620549 -5.70568484 -24.06603654 -5.31378087 0 0 Z " fill="#02C208" transform="translate(290,57)"/>
<path d="M0 0 C24.46313992 20.30041448 31.84397039 73.55628004 34.78189087 103.34156799 C35.1105675 107.34765645 35.18090872 111.3374808 35.203125 115.35546875 C35.21009399 116.21170837 35.21706299 117.067948 35.22424316 117.95013428 C35.24152393 120.69597357 35.2479623 123.4416086 35.25 126.1875 C35.25100708 127.12618927 35.25201416 128.06487854 35.25305176 129.03201294 C35.24274216 143.23485196 34.66318966 157.01538448 32 171 C31.79117188 172.18746826 31.79117188 172.18746826 31.578125 173.39892578 C23.69583731 217.98311553 2.63151885 261.24559575 -28.51000977 294.22021484 C-31.05813309 296.88816844 -31.05813309 296.88816844 -33 300 C-33.66 300 -34.32 300 -35 300 C-35.26828613 300.59514404 -35.53657227 301.19028809 -35.81298828 301.8034668 C-37.79435827 305.46993857 -40.84951031 307.99257303 -43.875 310.8125 C-44.57536377 311.46613525 -45.27572754 312.11977051 -45.99731445 312.79321289 C-58.18653215 323.94300894 -71.64190624 333.8292784 -86 342 C-86.65081543 342.37930664 -87.30163086 342.75861328 -87.97216797 343.14941406 C-110.46363674 356.24912587 -134.15764736 366.16041345 -159.625 371.8125 C-160.85440308 372.08658691 -160.85440308 372.08658691 -162.10864258 372.36621094 C-179.72101137 376.00748027 -197.22708471 377.5542114 -215.1875 377.4375 C-216.16013794 377.43512329 -217.13277588 377.43274658 -218.1348877 377.43029785 C-234.07172587 377.36965192 -249.36110683 376.2587089 -265 373 C-265.77972168 372.85046875 -266.55944336 372.7009375 -267.36279297 372.546875 C-294.28206076 367.37492762 -319.07191118 355.97740338 -343 343 C-343 342.34 -343 341.68 -343 341 C-339.43835342 339.37312482 -335.87553518 337.74883147 -332.3125 336.125 C-330.80139648 335.43470703 -330.80139648 335.43470703 -329.25976562 334.73046875 C-328.28330078 334.28574219 -327.30683594 333.84101563 -326.30078125 333.3828125 C-325.40528564 332.97434082 -324.50979004 332.56586914 -323.5871582 332.14501953 C-317.42782105 329.41903187 -313.70963003 328.23062311 -307.06347656 330.72753906 C-304.90147995 331.66096259 -302.76415636 332.64041457 -300.625 333.625 C-281.64324467 341.9310448 -261.47811577 346.30289165 -241 349 C-240.21931152 349.1038501 -239.43862305 349.2077002 -238.63427734 349.31469727 C-230.94316717 350.21255113 -223.23437679 350.20065313 -215.5 350.1875 C-214.78868927 350.18656342 -214.07737854 350.18562683 -213.34451294 350.18466187 C-164.96456284 350.04669558 -118.63022212 334.09808939 -80 305 C-79.05769531 304.29101562 -78.11539062 303.58203125 -77.14453125 302.8515625 C-53.53137412 284.45657523 -34.80900284 261.89191343 -20 236 C-19.49388184 235.1335083 -19.49388184 235.1335083 -18.97753906 234.24951172 C9.97997605 184.42846011 14.86786175 122.88058185 0.59765625 67.78125 C-2.66323766 55.72283869 -7.05404429 44.35804053 -12.37255859 33.06079102 C-16.19350868 24.82663416 -16.19350868 24.82663416 -16 21 C-14.07095261 17.48031415 -11.6666864 14.39748882 -9.1875 11.25 C-8.53201172 10.38761719 -7.87652344 9.52523437 -7.20117188 8.63671875 C-2.5416061 2.5416061 -2.5416061 2.5416061 0 0 Z " fill="#02C208" transform="translate(465,123)"/>
</svg>
