<?xml version="1.0" encoding="UTF-8"?>
<svg version="1.1" xmlns="http://www.w3.org/2000/svg" width="1541" height="494">
<path d="M0 0 C10.04510313 8.95921959 19.20971047 18.47170296 26.80224609 29.60742188 C25.42652098 32.53109342 23.84207803 35.08064665 21.93896484 37.68945312 C21.38144531 38.45708984 20.82392578 39.22472656 20.24951172 40.015625 C19.66878906 40.80904297 19.08806641 41.60246094 18.48974609 42.41992188 C16.7912359 44.75320938 15.09313371 47.08635426 13.40917969 49.43017578 C12.3783735 50.82682263 11.31058431 52.19732616 10.19921875 53.53076172 C8.55081211 55.47564341 8.55081211 55.47564341 6.80224609 58.60742188 C7.17224852 61.72425285 7.17224852 61.72425285 8.80224609 64.60742188 C9.47900391 66.18716797 9.47900391 66.18716797 10.16943359 67.79882812 C10.66701172 68.91128906 11.16458984 70.02375 11.67724609 71.16992188 C25.488942 103.08187679 24.39561635 136.03929509 12.46240234 168.22070312 C0.43999128 198.16017002 -24.18734282 221.82334121 -53.48291016 234.70117188 C-69.28226384 241.28504913 -85.17651817 244.005655 -102.26025391 243.98242188 C-102.93895538 243.98187805 -103.61765686 243.98133423 -104.31692505 243.98077393 C-121.95443129 243.91602822 -136.93769425 240.21307111 -153.19775391 233.60742188 C-157.56878755 232.15041066 -160.62911302 234.12002211 -164.70556641 235.78320312 C-166.4313849 236.45374097 -168.1579738 237.12229872 -169.88525391 237.7890625 C-172.60563671 238.84821587 -175.31900201 239.9183871 -178.02099609 241.02368164 C-192.91344692 247.08174319 -192.91344692 247.08174319 -198.1171875 246.0012207 C-200.57852824 244.44172682 -202.26317492 242.7826363 -204.19775391 240.60742188 C-205.74607865 239.20120182 -207.29561073 237.79631025 -208.84619141 236.39257812 C-210.43276746 234.829502 -212.00800319 233.2548464 -213.57275391 231.66992188 C-214.40202393 230.83307861 -215.23129395 229.99623535 -216.08569336 229.1340332 C-226.78025422 218.15316949 -235.13695748 206.20492918 -242.19775391 192.60742188 C-242.53403809 191.96611328 -242.87032227 191.32480469 -243.21679688 190.6640625 C-249.03902523 179.40793667 -253.15225785 167.90302556 -256.19775391 155.60742188 C-256.46676514 154.53959473 -256.46676514 154.53959473 -256.74121094 153.45019531 C-266.28889661 113.26837616 -256.93112793 70.54699662 -236.19775391 35.60742188 C-233.4959042 31.36276084 -230.42649045 27.46336231 -227.19775391 23.60742188 C-226.30149902 22.51010981 -225.40568509 21.41243746 -224.51025391 20.31445312 C-210.87875779 3.75273327 -195.23134927 -9.4225996 -176.19775391 -19.39257812 C-175.13943359 -19.98425781 -174.08111328 -20.5759375 -172.99072266 -21.18554688 C-118.12728108 -50.66732509 -46.57832435 -40.07252583 0 0 Z M-205.42431641 23.50585938 C-220.55361832 40.18185738 -232.28377958 59.78328654 -238.19775391 81.60742188 C-238.48908203 82.579375 -238.78041016 83.55132812 -239.08056641 84.55273438 C-248.38096266 117.69103948 -243.10217359 155.89478066 -226.90625 186.00878906 C-217.6264931 202.49199493 -200.93093328 228.75128598 -182.19775391 235.60742188 C-178.77814599 234.47659524 -175.93742998 232.92572859 -172.96850586 230.90869141 C-172.16608963 230.36697296 -171.3636734 229.82525452 -170.53694153 229.26712036 C-169.24949287 228.3875618 -169.24949287 228.3875618 -167.93603516 227.49023438 C-167.03137009 226.87783905 -166.12670502 226.26544373 -165.19462585 225.63449097 C-162.29680411 223.67156132 -159.40341481 221.70221302 -156.51025391 219.73242188 C-153.67351913 217.80717445 -150.835878 215.8832684 -147.99816895 213.9594574 C-146.12092399 212.68662102 -144.24405307 211.41323282 -142.36755371 210.13929749 C-135.03187734 205.16194741 -127.66241415 200.23704092 -120.28149414 195.32714844 C-114.35922333 191.38655154 -108.46164214 187.41022671 -102.57275391 183.41992188 C-102.01749023 183.04601318 -101.46222656 182.67210449 -100.89013672 182.28686523 C-99.26912499 181.19514908 -97.65133966 180.09864693 -96.03369141 179.00195312 C-95.10089355 178.37135986 -94.1680957 177.7407666 -93.20703125 177.09106445 C-92.54396973 176.6014624 -91.8809082 176.11186035 -91.19775391 175.60742188 C-91.19775391 175.27742187 -91.19775391 174.94742188 -91.19775391 174.60742188 C-98.78775391 174.60742188 -106.37775391 174.60742188 -114.19775391 174.60742188 C-107.35371967 167.76338763 -100.29780823 161.2457797 -92.76025391 155.16992188 C-88.76551404 151.94799086 -84.95221042 148.60086692 -81.19775391 145.10742188 C-76.59117272 140.82109223 -71.82648394 136.80990399 -66.92431641 132.86132812 C-63.09389783 129.69492194 -59.44637718 126.34456989 -55.79150391 122.97851562 C-52.76890633 120.21538802 -49.67850843 117.53992823 -46.56103516 114.88476562 C-46.11115234 114.46324219 -45.66126953 114.04171875 -45.19775391 113.60742188 C-45.19775391 113.27742187 -45.19775391 112.94742188 -45.19775391 112.60742188 C-53.44775391 112.60742188 -61.69775391 112.60742188 -70.19775391 112.60742188 C-70.19775391 111.94742188 -70.19775391 111.28742188 -70.19775391 110.60742188 C-69.30721313 110.19447876 -69.30721313 110.19447876 -68.39868164 109.77319336 C-66.30216499 108.66272558 -64.75268389 107.52051133 -62.98291016 105.95507812 C-62.38591309 105.43155762 -61.78891602 104.90803711 -61.17382812 104.36865234 C-60.54234863 103.80807129 -59.91086914 103.24749023 -59.26025391 102.66992188 C-57.91055233 101.48569089 -56.56028219 100.30210764 -55.20947266 99.11914062 C-54.5344873 98.52665527 -53.85950195 97.93416992 -53.1640625 97.32373047 C-50.32572301 94.84626255 -47.45361031 92.41019934 -44.57275391 89.98242188 C-44.04496338 89.53713135 -43.51717285 89.09184082 -42.97338867 88.63305664 C-41.91266732 87.73849387 -40.85171489 86.84420501 -39.79052734 85.95019531 C-37.08960579 83.67320749 -34.39398147 81.38996394 -31.69775391 79.10742188 C-30.61444526 78.19072603 -29.53111194 77.27405935 -28.44775391 76.35742188 C-27.91150391 75.90367187 -27.37525391 75.44992188 -26.82275391 74.98242188 C-24.38525391 72.91992188 -24.38525391 72.91992188 -21.94775391 70.85742188 C-21.41142334 70.40359131 -20.87509277 69.94976074 -20.32250977 69.48217773 C-19.24003963 68.56626649 -18.15752016 67.65041355 -17.07495117 66.73461914 C-14.35300175 64.43187204 -11.63193883 62.12809249 -8.91259766 59.82226562 C-1.70517939 53.71314101 5.53427006 47.64442539 12.80224609 41.60742188 C5.36818342 20.80669478 -21.01980501 3.11820268 -39.96972656 -6.34130859 C-96.00791176 -32.78229319 -162.31837772 -21.3698246 -205.42431641 23.50585938 Z " fill="#01C207" transform="translate(259.19775390625,141.392578125)"/>
<path d="M0 0 C0.85078125 0.60457031 1.7015625 1.20914063 2.578125 1.83203125 C6.65866986 4.76403114 6.65866986 4.76403114 8 6 C8 6.66 8 7.32 8 8 C6.89365204 7.96882835 6.89365204 7.96882835 5.76495361 7.93702698 C-1.23665718 7.75335334 -8.23480307 7.64366739 -15.23849106 7.61396885 C-18.83870458 7.59617461 -22.4340483 7.55129491 -26.03271484 7.44116211 C-42.78529474 6.18671153 -42.78529474 6.18671153 -57.45947266 12.21508789 C-60.15406756 15.24890071 -62.16022424 18.49582381 -63.98580933 22.10848999 C-65.60747592 25.13296919 -67.71996921 27.6463983 -69.875 30.3125 C-70.69097853 31.37693447 -71.50630187 32.44187236 -72.3203125 33.5078125 C-75.44212382 37.58436399 -78.5959138 41.63589903 -81.75 45.6875 C-82.63921143 46.82989136 -82.63921143 46.82989136 -83.54638672 47.99536133 C-84.75934681 49.55345805 -85.97240086 51.11148163 -87.18554688 52.66943359 C-90.70436146 57.18915965 -94.22076291 61.710765 -97.73583984 66.23339844 C-100.72226109 70.07511732 -103.71294009 73.91339984 -106.7109375 77.74609375 C-107.32453125 78.53177734 -107.938125 79.31746094 -108.5703125 80.12695312 C-109.72247547 81.60207087 -110.87598539 83.07613822 -112.03125 84.54882812 C-116.50050124 90.27573099 -120.71894727 96.1135525 -125 102 C-112.79 102 -100.58 102 -88 102 C-91.63963559 106.24624152 -95.09239675 110.21493882 -99.02392578 114.12158203 C-99.48654816 114.58274414 -99.94917053 115.04390625 -100.42581177 115.51904297 C-101.41658983 116.50605624 -102.40851966 117.49191453 -103.40152359 118.47668839 C-104.97657465 120.03881818 -106.54834218 121.60418855 -108.11935425 123.17037964 C-111.45174798 126.49142742 -114.78807812 129.80850286 -118.125 133.125 C-122.00230981 136.97863201 -125.87794675 140.83391654 -129.74938583 144.69344711 C-131.29165904 146.22927872 -132.83693087 147.76204801 -134.38235474 149.29470825 C-135.33333963 150.24205858 -136.28418327 151.18955074 -137.23486328 152.13720703 C-138.47346603 153.36795456 -138.47346603 153.36795456 -139.73709106 154.62356567 C-141.96140108 156.95946465 -143.98503365 159.48129206 -146 162 C-137.42 162.33 -128.84 162.66 -120 163 C-122.70669234 167.0600385 -124.94948233 170.21356119 -128.1875 173.6875 C-132.26731788 178.14309058 -136.1131995 182.74310079 -139.9140625 187.4375 C-142.55141268 190.67739086 -145.26408759 193.84317799 -148 197 C-153.95516508 196.12784768 -157.82388398 190.96669427 -162 187 C-162.77085937 186.29359375 -163.54171875 185.5871875 -164.3359375 184.859375 C-182.73076007 167.43270099 -195.51987902 140.12946107 -198 115 C-198.10828125 113.99839844 -198.2165625 112.99679687 -198.328125 111.96484375 C-201.31991613 80.82659657 -193.53384746 48.48979786 -174 23.625 C-172.68258012 22.06971265 -171.3489875 20.52798777 -170 19 C-169.2678125 18.14792969 -168.535625 17.29585937 -167.78125 16.41796875 C-125.22780145 -32.18331581 -51.12799443 -38.20475827 0 0 Z " fill="#01C207" transform="translate(232,163)"/>
<path d="M0 0 C7.69919235 4.21276562 9.81387513 9.73688907 12.5703125 17.65625 C12.9557019 18.7263884 13.34109131 19.79652679 13.73815918 20.89909363 C14.98390344 24.36585228 16.21050059 27.83906831 17.4375 31.3125 C18.28660033 33.6826387 19.13735204 36.05218643 19.98974609 38.42114258 C21.25768151 41.94544595 22.52472104 45.47003411 23.78652954 48.99653625 C27.07971615 58.1995684 30.46241423 67.364255 33.9375 76.5 C34.37980957 77.67175781 34.82211914 78.84351563 35.27783203 80.05078125 C36.73731956 84.75831481 36.73731956 84.75831481 39.3125 88.8125 C39.52912292 88.22083038 39.74574585 87.62916077 39.96893311 87.01956177 C42.23857815 80.82130778 44.51030506 74.62381964 46.78320312 68.42675781 C47.62943279 66.11868256 48.47514428 63.81041726 49.3203125 61.50195312 C50.54027934 58.17006255 51.76215264 54.83887626 52.984375 51.5078125 C53.35745789 50.48761017 53.73054077 49.46740784 54.1149292 48.41629028 C55.84870236 43.69625119 57.60649633 38.98621572 59.43066406 34.30029297 C59.73458069 33.51830536 60.03849731 32.73631775 60.35162354 31.93063354 C62.19580886 27.86535466 64.53305547 24.68571814 68.62890625 22.67578125 C74.01672475 20.942582 79.99268845 20.87470384 85.25 23 C90.3165756 27.45244523 92.50659869 32.22185065 94.73828125 38.41796875 C95.2043 39.67508415 95.2043 39.67508415 95.67973328 40.95759583 C96.67036329 43.63522366 97.64810121 46.31733583 98.625 49 C99.59018924 51.62507192 100.55806741 54.2491402 101.52633667 56.87307739 C102.16571327 58.60613465 102.80400542 60.33959239 103.44119263 62.07345581 C106.61781292 70.69771867 109.94839767 79.25992929 113.3125 87.8125 C113.56813217 87.12663818 113.82376434 86.44077637 114.08714294 85.73413086 C116.54169802 79.14868449 118.99648939 72.56332626 121.45152187 65.97805786 C122.71251388 62.5956063 123.97342628 59.21312511 125.23413086 55.83056641 C125.4766326 55.17997253 125.71913433 54.52937866 125.9689846 53.85906982 C126.45715589 52.54925284 126.94522477 51.23939768 127.4331913 49.92950439 C128.64647042 46.67334532 129.86204558 43.41807774 131.08236694 40.16455078 C133.3882065 34.01165049 135.66552965 27.85122717 137.86767578 21.66015625 C138.46649315 19.99968262 138.46649315 19.99968262 139.07740784 18.30566406 C139.81816793 16.24837328 140.54698428 14.18672568 141.26133728 12.12011719 C143.10009613 7.05413006 144.45481382 3.64876661 149.3125 0.8125 C155.64022732 -1.53110271 161.23392909 -2.3474204 167.5 0.4375 C172.30573582 3.05457707 174.59652397 6.66457191 176.3125 11.8125 C177.10924707 19.38538388 175.48388174 25.45906982 172.7890625 32.4765625 C172.22955147 33.99187309 172.22955147 33.99187309 171.65873718 35.53779602 C170.43372448 38.84366514 169.18590144 42.14040018 167.9375 45.4375 C167.07566825 47.74890926 166.21525518 50.06084795 165.35620117 52.37329102 C163.1327833 58.34660515 160.89014131 64.31250754 158.64263916 70.27679443 C156.52509554 75.90553689 154.42534807 81.54089609 152.32421875 87.17578125 C148.68062099 96.93645808 145.02870681 106.69389385 141.33837891 116.43701172 C139.92359986 120.17586806 138.53437442 123.92321761 137.15771484 127.67626953 C136.45281544 129.57715436 135.7479006 131.47803346 135.04296875 133.37890625 C134.72693192 134.25369125 134.41089508 135.12847626 134.08528137 136.0297699 C131.97692479 141.67779621 129.82059758 145.99412925 124.8125 149.625 C118.44457032 151.78554757 111.92342955 152.07134103 105.8125 149.125 C100.71677862 144.41145772 98.32258373 139.93508773 96.08984375 133.5 C95.7953685 132.67604736 95.50089325 131.85209473 95.19749451 131.00317383 C94.22607072 128.27630357 93.26918584 125.54457228 92.3125 122.8125 C91.62582216 120.8747662 90.93847239 118.9372704 90.25048828 117 C88.46815004 111.96872611 86.70421947 106.93123912 84.94848633 101.890625 C83.85627453 98.75880641 82.75724032 95.62942895 81.65820312 92.5 C80.96052107 90.50014523 80.26323967 88.50015063 79.56640625 86.5 C79.23838516 85.56889404 78.91036407 84.63778809 78.57240295 83.6784668 C78.27466476 82.81906494 77.97692657 81.95966309 77.67016602 81.07421875 C77.40704117 80.32100342 77.14391632 79.56778809 76.87281799 78.79174805 C76.3125 76.8125 76.3125 76.8125 76.3125 73.8125 C75.6525 73.8125 74.9925 73.8125 74.3125 73.8125 C74.05654053 75.07006104 73.80058105 76.32762207 73.53686523 77.62329102 C72.30330713 83.16110485 70.54609274 88.47234846 68.72265625 93.83984375 C68.37746445 94.86880264 68.03227264 95.89776154 67.67662048 96.957901 C66.58037399 100.22339675 65.47802666 103.48678892 64.375 106.75 C63.27658405 110.00997872 62.17950229 113.27039769 61.08409119 116.53138733 C60.4048859 118.55226587 59.72382284 120.57252136 59.0405426 122.59202576 C57.23680434 127.94712076 55.53142366 133.31640061 53.95384216 138.74269104 C52.28556663 144.12673072 49.56255207 147.06592283 44.75390625 149.85546875 C39.28631395 151.99876493 33.42416605 151.91370649 27.90625 149.9609375 C19.98436484 145.61572437 17.69737177 136.56478751 14.765625 128.48046875 C14.43733704 127.58734482 14.10904907 126.69422089 13.77081299 125.77403259 C12.69723228 122.85085597 11.62995963 119.92541672 10.5625 117 C9.80980054 114.94820099 9.05653679 112.8966089 8.30273438 110.84521484 C7.13769555 107.67464489 5.97293886 104.50397546 4.80981445 101.33270264 C1.17843255 91.43316926 -2.4901957 81.547695 -6.17098999 71.66644287 C-7.17948553 68.9590158 -8.1871038 66.25126353 -9.19458008 63.54345703 C-12.00149003 56.0021675 -14.81371143 48.46300675 -17.65234375 40.93359375 C-18.07902344 39.80099121 -18.50570313 38.66838867 -18.9453125 37.50146484 C-19.69965394 35.5022727 -20.45597246 33.50382472 -21.21484375 31.50634766 C-21.53453125 30.65991699 -21.85421875 29.81348633 -22.18359375 28.94140625 C-22.45357178 28.23056885 -22.7235498 27.51973145 -23.00170898 26.78735352 C-25.09474231 20.76010305 -25.42220118 15.31912757 -23.625 9.1875 C-18.31298184 -0.06569292 -10.20242981 -3.28552824 0 0 Z " fill="#FFFFFF" transform="translate(373.6875,199.1875)"/>
<path d="M0 0 C14.9942935 0.29750582 29.90746191 5.66001853 41.375 15.25 C42.365 15.91 43.355 16.57 44.375 17.25 C44.2925 16.38375 44.21 15.5175 44.125 14.625 C44.52384794 9.2405528 47.03661071 6.42905723 51 2.9375 C56.78502588 0.04498706 61.98231018 -0.45603962 68.1875 1.375 C72.85280313 4.11929596 76.32755914 7.18643825 78.375 12.25 C78.63506222 14.76572037 78.63506222 14.76572037 78.64915466 17.65045166 C78.65912979 18.74664322 78.66910492 19.84283478 78.67938232 20.97224426 C78.680047 22.17024155 78.68071167 23.36823883 78.68139648 24.60253906 C78.68972 25.86799057 78.69804352 27.13344208 78.70661926 28.4372406 C78.72854966 31.90644739 78.73736149 35.37556605 78.74244571 38.84483433 C78.74609188 41.0145147 78.75233338 43.18417209 78.7594471 45.35384369 C78.78393931 52.92975374 78.79699239 60.50559536 78.80053711 68.08154297 C78.80416928 75.13213516 78.83404196 82.1822912 78.87594169 89.23275018 C78.91069415 95.29406728 78.92608642 101.35524024 78.92678314 107.41665626 C78.92757447 111.03320489 78.93624516 114.64930941 78.96478081 118.2657547 C78.99593273 122.30410751 78.98687838 126.34142915 78.97436523 130.37988281 C78.99661667 132.16473335 78.99661667 132.16473335 79.01931763 133.98564148 C78.95709632 141.0432838 78.03617357 145.81086573 73.375 151.25 C69.04748716 155.31523934 64.34301854 155.55480358 58.6171875 155.4609375 C53.70362999 154.99868645 50.99792673 152.88708415 47.625 149.4375 C45.45681356 146.36590254 44.32162522 143.86438719 43.375 140.25 C42.90191406 140.69730469 42.42882812 141.14460937 41.94140625 141.60546875 C28.03177314 154.3220729 11.19323458 159.22410285 -7.40429688 158.42480469 C-25.77397941 156.97881824 -41.20460477 147.25392651 -52.90234375 133.58984375 C-68.56327904 113.17952694 -72.63819117 88.96139274 -69.33984375 63.82421875 C-66.4882008 44.54263294 -57.24127551 26.90195918 -42.296875 14.19921875 C-29.37620077 4.77317132 -15.80300514 1.08986242 0 0 Z M-23.3125 43.1875 C-33.90666896 54.43910852 -37.25912277 68.20539665 -36.875 83.24609375 C-36.30561944 95.22301392 -31.8416273 106.63843503 -23.6328125 115.43359375 C-15.0776258 123.17320817 -4.74208584 126.8554818 6.71484375 126.46875 C17.63453385 125.57080192 25.98060336 121.48909544 33.5234375 113.48046875 C42.81072849 102.29261399 46.45382799 88.66706489 45.375 74.25 C43.24378601 59.6335639 38.15069669 47.83949543 26.2265625 38.58203125 C10.55202779 28.34253635 -9.71723965 30.76941839 -23.3125 43.1875 Z " fill="#FFFFFF" transform="translate(804.625,194.75)"/>
<path d="M0 0 C4.78841421 3.29868534 8.69029057 7.10374723 9.8125 12.9375 C9.92689672 15.01457988 9.98870193 17.09478078 10.01782227 19.17480469 C10.0477401 21.06631256 10.0477401 21.06631256 10.07826233 22.99603271 C10.09524401 24.36714557 10.11212291 25.7382597 10.12890625 27.109375 C10.14948835 28.51613967 10.17048515 29.92289833 10.19187927 31.32965088 C10.24697035 35.02523927 10.29643655 38.72088226 10.34472656 42.41656494 C10.39503649 46.19051959 10.45067293 49.96439532 10.50585938 53.73828125 C10.61328228 61.13795392 10.71476219 68.5376924 10.8125 75.9375 C11.20991394 75.46132736 11.60732788 74.98515472 12.01678467 74.49455261 C12.81043427 73.55401787 12.81043427 73.55401787 13.62011719 72.59448242 C14.14128113 71.97393478 14.66244507 71.35338715 15.19940186 70.71403503 C24.465957 60.50860525 38.31287311 54.96619373 51.8125 53.9375 C65.34055595 53.81439332 78.17184775 55.51413458 88.6640625 64.75 C105.56045086 81.95359542 104.96817636 107.68166645 105.015625 130.140625 C105.01986607 131.50249058 105.01986607 131.50249058 105.02419281 132.89186859 C105.03908848 137.68507672 105.04838192 142.47825543 105.05273438 147.27148438 C105.0582432 152.20637378 105.08234917 157.14099066 105.11070633 162.07579422 C105.12935038 165.89000238 105.13453898 169.7041446 105.13607025 173.51839447 C105.13908704 175.33799499 105.14708253 177.15759462 105.16025543 178.97714996 C105.17737333 181.52046058 105.17542326 184.06309995 105.16894531 186.60644531 C105.1781601 187.34945892 105.18737488 188.09247253 105.1968689 188.85800171 C105.14551322 195.3177661 103.62520864 199.79087135 99.4375 204.75 C94.81968582 208.59817848 90.98198062 209.34436221 85.08984375 209.1875 C80.25416331 208.65665343 76.8694986 207.02306613 73.5 203.5625 C70.17171033 198.38516051 69.52016641 194.05515039 69.54125977 187.97290039 C69.53603302 187.185112 69.53080627 186.39732361 69.52542114 185.58566284 C69.51520225 183.87896267 69.50940443 182.17223153 69.50753975 180.46550179 C69.50386091 177.75171207 69.48708826 175.03828292 69.46678162 172.3245697 C69.41154683 164.6099219 69.38085946 156.89521952 69.35620117 149.18041992 C69.34018843 144.45421727 69.30981902 139.72826636 69.27143669 135.00219536 C69.25989624 133.21354312 69.25385731 131.42484555 69.25375557 129.63615608 C69.7858062 110.01020859 69.7858062 110.01020859 61.8125 92.9375 C54.76489501 87.17127773 46.63223945 86.11675615 37.8125 86.9375 C28.83438639 88.42759138 22.7263894 91.81204902 16.5 98.375 C11.71318949 105.6438604 10.66679349 112.42157155 10.65478516 120.92138672 C10.64970444 121.71066559 10.64462372 122.49994446 10.63938904 123.31314087 C10.62871722 125.02150247 10.62008464 126.72987778 10.61326981 128.43825912 C10.60143723 131.14585309 10.58197381 133.85329068 10.56015015 136.56082153 C10.49867666 144.25712865 10.44450606 151.95341788 10.41113281 159.64990234 C10.39014868 164.36312876 10.35481885 169.07606635 10.31037521 173.78912735 C10.29624874 175.580767 10.28750037 177.37245771 10.28432083 179.16415024 C10.27939334 181.67468102 10.25618972 184.18444931 10.22900391 186.69482422 C10.23201004 187.42856262 10.23501617 188.16230103 10.2381134 188.91827393 C10.13535728 195.33169288 8.59675295 199.82456888 4.4375 204.75 C-0.1230095 208.55042458 -4.00639117 209.4056629 -9.84375 209.25 C-15.42983426 208.50518876 -19.14566881 206.2464674 -22.625 201.875 C-25.04879861 197.31825861 -25.33415591 193.6740975 -25.32794189 188.63175964 C-25.33091302 187.88205613 -25.33388414 187.13235262 -25.3369453 186.35993081 C-25.34563714 183.84044721 -25.34714095 181.32101109 -25.34863281 178.80151367 C-25.35326064 176.99802041 -25.35828525 175.19452813 -25.36367798 173.39103699 C-25.37680728 168.4860099 -25.38324795 163.5809965 -25.38768864 158.67595458 C-25.39061846 155.61230456 -25.3947231 152.54865828 -25.39919281 149.48501015 C-25.41286904 139.90192532 -25.42253512 130.31884906 -25.4263947 120.73575515 C-25.43087613 109.66906221 -25.44842747 98.60249274 -25.4773953 87.53583735 C-25.49900281 78.98458356 -25.50909848 70.43336452 -25.51043582 61.88208371 C-25.5114845 56.77341901 -25.51740574 51.66487035 -25.53525543 46.55623436 C-25.55172003 41.75047164 -25.55389944 36.9449124 -25.54511642 32.13913155 C-25.54434519 30.37589346 -25.54870013 28.6126445 -25.55857468 26.8494339 C-25.57127214 24.44077701 -25.56542967 22.03284318 -25.55499268 19.62419128 C-25.56304908 18.92778021 -25.57110548 18.23136913 -25.57940602 17.51385468 C-25.51866447 11.51291789 -23.68997154 7.67720389 -19.8125 3.1875 C-13.94205909 -1.8443065 -7.24124183 -2.41374728 0 0 Z " fill="#FFFFFF" transform="translate(601.1875,141.0625)"/>
<path d="M0 0 C0.68449219 0.62390625 1.36898438 1.2478125 2.07421875 1.890625 C3.30205078 2.98117188 3.30205078 2.98117188 4.5546875 4.09375 C18.46918393 17.14516874 26.79423928 34.73379494 28.39453125 53.68359375 C28.55620415 58.79784643 28.58182817 62.73327552 26.51171875 67.453125 C21.28208577 72.68275798 17.49997745 75.45090057 9.92060852 75.51272583 C9.02005234 75.49474945 8.11949615 75.47677307 7.19165039 75.45825195 C5.74171188 75.45934715 5.74171188 75.45934715 4.26248169 75.46046448 C1.08586377 75.45699712 -2.08926507 75.41817527 -5.265625 75.37890625 C-7.47521667 75.36957512 -9.68481871 75.36246043 -11.89442444 75.35746765 C-17.69626673 75.33842168 -23.49747832 75.28934076 -29.29907227 75.23394775 C-35.22468536 75.18270393 -41.15040084 75.1599426 -47.07617188 75.13476562 C-58.6929847 75.08122036 -70.30933042 74.99593603 -81.92578125 74.890625 C-81.17101005 76.95745839 -80.40597104 79.02054374 -79.63671875 81.08203125 C-79.21181152 82.23131104 -78.7869043 83.38059082 -78.34912109 84.56469727 C-76.28622244 89.38508636 -73.48662626 93.08260637 -69.92578125 96.890625 C-69.40371094 97.45394531 -68.88164063 98.01726562 -68.34375 98.59765625 C-58.99042978 107.58685695 -46.44143798 109.31727683 -34.046875 109.09375 C-24.94699459 108.75216602 -17.78372338 105.9250755 -9.86328125 101.703125 C-3.49708245 98.32214198 1.75044954 96.38431786 9.07421875 97.890625 C13.25910964 99.40430894 15.294966 101.90341764 17.34375 105.8671875 C19.21130607 111.04041769 18.61756793 115.45815897 16.69921875 120.515625 C8.91587542 132.29949794 -8.95687572 137.91890164 -21.92578125 140.890625 C-45.99356141 145.10810984 -69.19478073 140.56014637 -89.1796875 126.62109375 C-95.06847663 122.04626573 -99.71361048 117.02550169 -103.92578125 110.890625 C-104.36277344 110.3028125 -104.79976562 109.715 -105.25 109.109375 C-117.73852898 91.14480334 -119.27113948 67.06797837 -115.89746094 46.09667969 C-113.37281365 32.61621309 -107.89740602 20.36547414 -98.92578125 9.890625 C-98.44109375 9.25253906 -97.95640625 8.61445313 -97.45703125 7.95703125 C-86.40475978 -5.93957479 -68.98477987 -13.27286715 -51.80078125 -15.796875 C-32.70748529 -17.33665693 -14.78027715 -12.49989153 0 0 Z M-70.92578125 24.890625 C-71.4775 25.43976563 -72.02921875 25.98890625 -72.59765625 26.5546875 C-77.99975383 32.41141705 -80.61776205 38.0425098 -81.92578125 45.890625 C-57.83578125 45.890625 -33.74578125 45.890625 -8.92578125 45.890625 C-10.19823388 35.71100398 -13.85457639 29.29138708 -21.92578125 22.890625 C-36.6598541 13.92205892 -57.74897476 11.77539237 -70.92578125 24.890625 Z " fill="#01C207" transform="translate(1347.92578125,211.109375)"/>
<path d="M0 0 C0.92393051 -0.00817749 1.84786102 -0.01635498 2.79978943 -0.02478027 C5.86171828 -0.0496201 8.92360077 -0.0661479 11.9855957 -0.08056641 C13.55518004 -0.08855192 13.55518004 -0.08855192 15.15647316 -0.09669876 C20.69643038 -0.12342589 26.23636512 -0.14280107 31.77636719 -0.15722656 C36.35762522 -0.17056048 40.93843729 -0.19840407 45.51953125 -0.23925781 C51.05381934 -0.28861166 56.58770316 -0.31335131 62.12220192 -0.32045364 C64.22848738 -0.32716053 66.33476402 -0.34236787 68.44092369 -0.36634445 C71.39468493 -0.39804806 74.34689376 -0.39802459 77.30078125 -0.390625 C78.59707458 -0.415233 78.59707458 -0.415233 79.91955566 -0.44033813 C86.06681691 -0.37755009 90.22066524 1.25589963 94.97387695 5.19287109 C98.85002118 10.28031039 98.71584659 16.05395567 97.97387695 22.19287109 C95.97589729 29.92747419 89.32093632 36.31494754 84.40112305 42.41113281 C82.28103823 45.0577936 80.22149716 47.74939162 78.16137695 50.44287109 C74.12314949 55.71186654 70.05287923 60.95539062 65.97387695 66.19287109 C61.95918249 71.34841461 57.95286649 76.50971367 53.97387695 81.69287109 C49.94805955 86.93440564 45.9035176 92.16109963 41.84887695 97.38037109 C41.2868457 98.10482422 40.72481445 98.82927734 40.14575195 99.57568359 C37.04432844 103.56425849 33.91423276 107.5279556 30.75561523 111.47143555 C30.04462677 112.3593428 29.33363831 113.24725006 28.60110474 114.1620636 C28.06411957 114.83223007 27.5271344 115.50239655 26.97387695 116.19287109 C28.07808739 116.20167046 28.07808739 116.20167046 29.2046051 116.21064758 C36.163358 116.26870231 43.12183966 116.34085184 50.08027744 116.42858601 C53.65717348 116.47319412 57.23395813 116.51247062 60.81103516 116.53930664 C64.26719503 116.56543597 67.72292406 116.6059046 71.17881584 116.65605736 C73.13006186 116.68070739 75.08147491 116.69074597 77.03285217 116.70051575 C85.12125874 116.83385548 90.57907906 117.24087292 96.84887695 122.69287109 C100.49185616 126.97872899 100.31861076 131.06204873 100.24731445 136.46630859 C99.85460729 140.38216003 98.67333389 142.35498047 95.97387695 145.19287109 C90.22636885 149.23015977 85.93058949 149.77210101 79.00292969 149.71044922 C78.02643463 149.7174585 77.04993958 149.72446777 76.04385376 149.73168945 C72.83143275 149.74922617 69.61989993 149.73766258 66.4074707 149.72412109 C64.16740246 149.72681702 61.92733536 149.73070028 59.68727112 149.73571777 C54.99924547 149.7416068 50.31152524 149.73306795 45.62353516 149.71435547 C39.61886794 149.69155345 33.6149154 149.70470122 27.61027431 149.72864532 C22.9871127 149.74310793 18.36412019 149.73849533 13.74095345 149.72813416 C11.52699766 149.72546885 9.31302643 149.72872969 7.09908867 149.73805237 C4.00412252 149.74822668 0.91031005 149.73270419 -2.18457031 149.71044922 C-3.09642593 149.71854614 -4.00828156 149.72664307 -4.94776917 149.73498535 C-11.75984447 149.64437342 -15.39931018 147.74868902 -20.33862305 142.94287109 C-23.83311961 137.24813595 -23.28522066 131.75780381 -21.81567383 125.52978516 C-20.4832764 121.58615244 -18.12427078 118.64663257 -15.52612305 115.44287109 C-14.98713379 114.75241699 -14.44814453 114.06196289 -13.89282227 113.35058594 C-12.79599129 111.947121 -11.69302155 110.54843037 -10.58374023 109.15478516 C-8.4005058 106.40486793 -6.2792836 103.61063993 -4.15112305 100.81787109 C0.48239762 94.81366265 5.14199903 88.82974985 9.80151367 82.84570312 C14.00358224 77.44728361 18.18019281 72.03027498 22.3449707 66.60302734 C24.34801226 63.9988385 26.36397252 61.40497285 28.3840332 58.81396484 C28.98795898 58.03923828 29.59188477 57.26451172 30.21411133 56.46630859 C31.37978671 54.97204518 32.54636666 53.4784867 33.71411133 51.98583984 C38.55207801 45.78418899 43.26910977 39.49586068 47.97387695 33.19287109 C47.29006958 33.18922546 46.60626221 33.18557983 45.9017334 33.18182373 C38.76333024 33.13990631 31.6255645 33.07049513 24.48754883 32.98535156 C21.82596084 32.95499586 19.16497675 32.93594995 16.50317383 32.921875 C12.67006052 32.90038894 8.83794093 32.85370546 5.00512695 32.80224609 C3.8214856 32.80101746 2.63784424 32.79978882 1.41833496 32.79852295 C-5.51231674 32.67656321 -10.1458122 31.95193464 -16.02612305 28.19287109 C-19.85389419 23.87436006 -21.09201294 19.84842059 -21.02612305 14.19287109 C-20.22988968 8.42017922 -18.14336237 5.88152661 -13.7800293 2.35693359 C-9.5265965 -0.46605744 -4.89913763 0.02387015 0 0 Z " fill="#01C207" transform="translate(1114.026123046875,200.80712890625)"/>
<path d="M0 0 C4.22405285 2.21785781 6.62362133 5.1445843 8.79296875 9.31640625 C10.01630705 14.59355186 9.90815743 19.8090547 9.85546875 25.19140625 C9.85095703 26.07054687 9.84644531 26.9496875 9.84179688 27.85546875 C9.83009212 30.00914428 9.81215944 32.16278442 9.79296875 34.31640625 C10.4478125 34.29545898 11.10265625 34.27451172 11.77734375 34.25292969 C14.78239203 34.16910242 17.78719339 34.1175373 20.79296875 34.06640625 C21.82292969 34.03289062 22.85289062 33.999375 23.9140625 33.96484375 C30.36221057 33.88270174 35.49601837 34.39057641 40.79296875 38.31640625 C44.82420507 43.25467074 45.43122256 47.40349147 45.1796875 53.7265625 C44.62395813 57.44826525 43.33238089 59.57109582 40.79296875 62.31640625 C36.15283841 65.68050075 32.23412279 66.44687808 26.58984375 66.4140625 C25.61015625 66.41083984 24.63046875 66.40761719 23.62109375 66.40429688 C22.6053125 66.39591797 21.58953125 66.38753906 20.54296875 66.37890625 C18.99609375 66.37213867 18.99609375 66.37213867 17.41796875 66.36523438 C14.87624302 66.35346713 12.33463556 66.33702636 9.79296875 66.31640625 C9.83099545 76.80862497 9.89031296 87.30048604 9.97687149 97.79242325 C10.01639339 102.66420089 10.04855868 107.53579651 10.06396484 112.40771484 C10.07910048 117.10876905 10.11349067 121.80932298 10.16127777 126.51015472 C10.17612358 128.30426436 10.18401159 130.09844541 10.1848526 131.89261627 C10.18721446 134.40454037 10.21422915 136.9150731 10.24707031 139.42675781 C10.24203995 140.16978653 10.23700958 140.91281525 10.23182678 141.67835999 C10.30200624 145.14397546 10.54077002 146.99109281 12.69281006 149.76702881 C16.14984016 152.31742868 19.58404356 152.41960231 23.79296875 152.31640625 C25.79702102 151.66202184 27.79725552 150.99579799 29.79296875 150.31640625 C34.42479997 150.105033 37.08665476 150.74534388 40.73046875 153.69140625 C44.16600073 158.0639015 44.26577033 162.13380678 44.1875 167.52734375 C43.53364488 172.14964626 41.45216066 174.55040292 37.79296875 177.31640625 C25.99339141 184.44067936 12.51180888 185.1491872 -0.83203125 182.12890625 C-9.54272357 179.53372068 -16.1511823 174.92835315 -21.20703125 167.31640625 C-26.18749412 156.49129502 -25.7296967 145.44022694 -25.59765625 133.796875 C-25.59018001 131.84247929 -25.58449363 129.88807599 -25.58050537 127.93367004 C-25.56535779 122.83233314 -25.52617189 117.73146423 -25.48168945 112.63031006 C-25.44049989 107.40790128 -25.42244415 102.18541562 -25.40234375 96.96289062 C-25.35966535 86.74719215 -25.29154857 76.53183837 -25.20703125 66.31640625 C-26.96406372 66.34359741 -26.96406372 66.34359741 -28.7565918 66.37133789 C-30.30647396 66.38599815 -31.85636035 66.40021643 -33.40625 66.4140625 C-34.56199524 66.43370056 -34.56199524 66.43370056 -35.74108887 66.45373535 C-41.28672296 66.49089452 -45.9236854 66.20720827 -50.20703125 62.31640625 C-53.52259771 58.71419139 -54.47176079 55.15415518 -54.70703125 50.31640625 C-54.43064282 44.63316914 -52.98804404 40.84255533 -48.7578125 37 C-41.96029839 32.61598528 -32.93891494 34.00010192 -25.20703125 34.31640625 C-25.22797852 33.6207959 -25.24892578 32.92518555 -25.27050781 32.20849609 C-25.35400105 29.03628167 -25.40579654 25.86429894 -25.45703125 22.69140625 C-25.50730469 21.04978516 -25.50730469 21.04978516 -25.55859375 19.375 C-25.63568607 13.01488377 -25.55193089 9.11159549 -21.20703125 4.31640625 C-14.95905579 -1.18776261 -8.16828912 -2.53000105 0 0 Z " fill="#FFFFFF" transform="translate(959.20703125,166.68359375)"/>
<path d="M0 0 C0.66 0 1.32 0 2 0 C23.3667994 40.7813024 28.99732532 84.82401806 15.34423828 129.12792969 C2.88476294 167.6898661 -26.03907457 201.14506532 -61.98828125 219.60546875 C-72.37682632 224.78260161 -82.71866742 229.23238944 -94 232 C-94.74072754 232.19319824 -95.48145508 232.38639648 -96.24462891 232.58544922 C-118.99813617 238.33128439 -147.23159742 239.04499472 -170 233 C-170.79180664 232.79600586 -171.58361328 232.59201172 -172.39941406 232.38183594 C-187.35859663 228.43977287 -201.7121224 223.00963733 -215 215 C-215 214.34 -215 213.68 -215 213 C-212.32035677 211.79129704 -209.63366375 210.60829071 -206.9375 209.4375 C-206.18533203 209.09525391 -205.43316406 208.75300781 -204.65820312 208.40039062 C-198.30456633 205.67740343 -194.20098034 205.79313386 -187.6328125 208.26953125 C-186.47523438 208.77871094 -185.31765625 209.28789062 -184.125 209.8125 C-151.70916129 223.39348511 -113.36161 221.79584939 -81.0390625 208.75390625 C-46.63158202 194.17232866 -19.64105633 167.53323357 -5 133 C7.78192772 100.20995554 10.05581762 61.68218557 -3.94287109 28.78417969 C-5.23477353 25.92206105 -6.52518469 23.06680184 -7.94042969 20.26318359 C-9.33276559 17.3643735 -10.12303832 15.57733364 -9.44140625 12.37890625 C-7.78747029 9.64923958 -6.00348328 7.17343974 -4 4.6875 C-3.29875 3.80449219 -2.5975 2.92148438 -1.875 2.01171875 C-0.946875 1.01591797 -0.946875 1.01591797 0 0 Z " fill="#01C207" transform="translate(291,182)"/>
<path d="M0 0 C3.56609084 2.45119326 5.41158928 5.16054909 6.76171875 9.2109375 C6.86022272 10.9480812 6.90098582 12.68874885 6.90888977 14.42866516 C6.91604507 15.50954407 6.92320038 16.59042297 6.93057251 17.70405579 C6.93326141 18.89008896 6.93595032 20.07612213 6.9387207 21.2980957 C6.9485775 23.17161209 6.9485775 23.17161209 6.95863342 25.08297729 C6.97838223 29.22589354 6.99003329 33.36877107 7 37.51171875 C7.00404823 38.93895169 7.00816518 40.36618443 7.01235008 41.79341698 C7.03139654 48.49858345 7.04562914 55.20373894 7.05396205 61.90892726 C7.06373516 69.64486555 7.09005857 77.38051776 7.13046294 85.11635524 C7.16063466 91.09862805 7.17543188 97.0808189 7.17874306 103.06316632 C7.18109223 106.63489969 7.19003476 110.20632725 7.21520424 113.7779789 C7.24284024 117.7639441 7.23865054 121.74953347 7.23168945 125.7355957 C7.24449951 126.91555618 7.25730957 128.09551666 7.27050781 129.31123352 C7.23048328 135.59023764 7.03495451 139.46834137 2.76171875 144.2109375 C-2.29936895 148.77826055 -6.10551953 149.51828142 -12.73828125 149.421875 C-17.75368967 148.99869991 -20.82714411 146.89247764 -24.05078125 143.2109375 C-26.90454606 139.2972029 -27.36370386 136.74376379 -27.37872314 132.03117371 C-27.38728836 130.42247658 -27.38728836 130.42247658 -27.39602661 128.78128052 C-27.39714447 127.60459808 -27.39826233 126.42791565 -27.39941406 125.21557617 C-27.40437897 123.97631882 -27.40934387 122.73706146 -27.41445923 121.46025085 C-27.42656948 118.0592919 -27.43402649 114.65839445 -27.43846989 111.25742126 C-27.44140222 109.13182482 -27.44550735 107.00623376 -27.44997406 104.88064003 C-27.463647 98.22779592 -27.47331449 91.57496411 -27.47717595 84.92210692 C-27.48165554 77.24678068 -27.49919954 69.57163264 -27.52817655 61.89636058 C-27.54980628 55.96079526 -27.55988093 50.02528003 -27.56121707 44.08967572 C-27.56226423 40.54594751 -27.56815289 37.00238684 -27.58603668 33.45870018 C-27.60560701 29.50390269 -27.60122321 25.54932716 -27.59472656 21.59448242 C-27.60394135 20.42387268 -27.61315613 19.25326294 -27.62265015 18.04718018 C-27.59346417 12.38243562 -27.55924628 8.04414882 -24.23828125 3.2109375 C-16.95256041 -3.69132435 -8.71899413 -4.83056257 0 0 Z " fill="#01C207" transform="translate(1060.23828125,200.7890625)"/>
<path d="M0 0 C11.51665336 7.28258963 18.83628025 17.3033972 22.265625 30.44921875 C23.47908698 45.61749355 21.26033688 57.8853611 11.6171875 69.94921875 C4.90404181 77.3361746 -5.34194593 83.86203862 -15.50805664 84.7512207 C-31.4062149 85.20721861 -42.90914476 83.03605013 -55.171875 72.19921875 C-64.79102708 61.28018126 -68.91076217 50.97322111 -68.7578125 36.3359375 C-67.93321231 24.99179488 -63.29714255 14.20681895 -55.08984375 6.25390625 C-39.42590496 -6.7873454 -18.10562148 -10.39080478 0 0 Z M-46.6796875 11.2578125 C-53.9760417 17.92995389 -58.82353711 27.01270823 -59.6875 36.8984375 C-59.91546218 48.39153096 -56.247778 57.35813467 -48.4453125 65.7734375 C-40.07348481 73.77548482 -32.10882764 76.21019721 -20.73999023 76.04077148 C-10.60634712 75.60047207 -4.07225456 72.08171663 3.25 65.0703125 C10.93677434 56.60160767 14.0559275 47.76299019 13.8359375 36.44921875 C12.63231675 25.64598864 6.80488087 16.39691397 -1.484375 9.57421875 C-15.86756721 -0.04833942 -33.08503006 0.83201649 -46.6796875 11.2578125 Z " fill="#01C207" transform="translate(1464.484375,136.42578125)"/>
<path d="M0 0 C2.83253266 2.31075033 3.83837867 3.515136 5 7 C5.17466964 9.78612399 5.27697439 12.52492412 5.3125 15.3125 C5.34150391 16.05951172 5.37050781 16.80652344 5.40039062 17.57617188 C5.46074257 22.86393117 4.47616276 25.7923542 1 30 C-3.99667116 33.49766981 -11.10322808 33.59071353 -17 33 C-26.8961808 30.86783623 -26.8961808 30.86783623 -30 27 C-31.32555219 23.02334343 -31.30174047 19.35330334 -31.375 15.1875 C-31.41238281 14.39279297 -31.44976563 13.59808594 -31.48828125 12.77929688 C-31.5505739 8.59530733 -31.33547137 5.84597179 -28.66796875 2.51171875 C-21.62513228 -4.11865292 -8.61290293 -3.58870955 0 0 Z " fill="#01C207" transform="translate(1063,148)"/>
<path d="M0 0 C1.09441406 0.14824219 2.18882813 0.29648438 3.31640625 0.44921875 C6.87533084 1.43360215 8.8056679 2.74815078 11.4375 5.3125 C12 7.875 12 7.875 11.4375 10.3125 C9.875 12.25 9.875 12.25 7.4375 13.3125 C5.80033201 12.87814931 4.16483993 12.42798394 2.5625 11.87890625 C-3.08804982 10.37278543 -8.72486932 10.44380186 -14 12.9375 C-17.53271775 16.21172621 -20.20437962 18.80565734 -20.91015625 23.74609375 C-21.08356026 28.82004588 -20.69055579 32.14175895 -17.5625 36.3125 C-17.5625 36.9725 -17.5625 37.6325 -17.5625 38.3125 C-10.13680214 41.32291805 -4.06441566 42.49566542 3.75 40.125 C7.4375 39.3125 7.4375 39.3125 9.9375 40.375 C11.4375 42.3125 11.4375 42.3125 12 44.75 C11.20746178 48.36045189 9.47146572 49.33689441 6.4375 51.3125 C-0.95153234 53.77551078 -11.01924624 53.58026948 -18.125 50.3125 C-25.14867322 46.10302581 -29.94217719 40.46323617 -32.12890625 32.53125 C-33.4606954 25.71632893 -32.71273004 19.54953263 -29.5625 13.3125 C-24.3852267 5.75319486 -18.59923055 1.65491075 -9.69921875 -0.32421875 C-6.27680807 -0.72058761 -3.4051961 -0.5025378 0 0 Z " fill="#01C207" transform="translate(1448.5625,149.6875)"/>
</svg>
