<?xml version="1.0" encoding="UTF-8"?>
<svg xmlns="http://www.w3.org/2000/svg" xmlns:xlink="http://www.w3.org/1999/xlink" width="800px" height="256px" viewBox="0 0 798 256" version="1.1">
<g id="surface1">
<path style=" stroke:none;fill-rule:nonzero;fill:rgb(0.392157%,76.078433%,2.745098%);fill-opacity:1;" d="M 134.222656 73.273438 C 139.425781 77.914062 144.171875 82.84375 148.105469 88.617188 C 147.390625 90.128906 146.570312 91.453125 145.585938 92.804688 C 145.296875 93.203125 145.007812 93.597656 144.710938 94.007812 C 144.410156 94.421875 144.109375 94.832031 143.800781 95.253906 C 142.917969 96.464844 142.039062 97.671875 141.167969 98.886719 C 140.632812 99.613281 140.082031 100.320312 139.507812 101.011719 C 138.652344 102.019531 138.652344 102.019531 137.746094 103.644531 C 137.9375 105.257812 137.9375 105.257812 138.78125 106.753906 C 139.132812 107.570312 139.132812 107.570312 139.492188 108.40625 C 139.75 108.984375 140.007812 109.558594 140.269531 110.152344 C 147.421875 126.691406 146.859375 143.769531 140.679688 160.449219 C 134.453125 175.960938 121.699219 188.226562 106.527344 194.898438 C 98.347656 198.3125 90.117188 199.71875 81.269531 199.707031 C 80.917969 199.707031 80.566406 199.707031 80.203125 199.707031 C 71.070312 199.675781 63.3125 197.753906 54.890625 194.332031 C 52.628906 193.578125 51.042969 194.597656 48.933594 195.460938 C 48.039062 195.808594 47.144531 196.152344 46.25 196.5 C 44.839844 197.046875 43.4375 197.601562 42.035156 198.175781 C 34.324219 201.316406 34.324219 201.316406 31.628906 200.753906 C 30.355469 199.945312 29.484375 199.085938 28.480469 197.960938 C 27.679688 197.230469 26.878906 196.503906 26.074219 195.773438 C 25.253906 194.964844 24.4375 194.148438 23.625 193.328125 C 23.199219 192.894531 22.769531 192.460938 22.324219 192.015625 C 16.789062 186.324219 12.460938 180.132812 8.804688 173.085938 C 8.628906 172.753906 8.457031 172.421875 8.277344 172.078125 C 5.261719 166.246094 3.128906 160.28125 1.554688 153.910156 C 1.414062 153.359375 1.414062 153.359375 1.273438 152.792969 C -3.671875 131.96875 1.171875 109.832031 11.910156 91.726562 C 13.308594 89.523438 14.898438 87.503906 16.570312 85.507812 C 17.035156 84.9375 17.5 84.367188 17.960938 83.800781 C 25.023438 75.21875 33.125 68.390625 42.980469 63.222656 C 43.527344 62.917969 44.078125 62.609375 44.640625 62.292969 C 73.050781 47.015625 110.105469 52.507812 134.222656 73.273438 Z M 27.847656 85.453125 C 20.011719 94.09375 13.9375 104.253906 10.875 115.5625 C 10.722656 116.066406 10.574219 116.570312 10.417969 117.089844 C 5.601562 134.261719 8.335938 154.058594 16.722656 169.664062 C 21.527344 178.207031 30.171875 191.816406 39.875 195.367188 C 41.644531 194.78125 43.117188 193.980469 44.652344 192.933594 C 45.070312 192.652344 45.484375 192.371094 45.914062 192.082031 C 46.578125 191.628906 46.578125 191.628906 47.257812 191.160156 C 47.726562 190.84375 48.195312 190.527344 48.679688 190.199219 C 50.179688 189.183594 51.679688 188.164062 53.175781 187.140625 C 54.644531 186.144531 56.113281 185.148438 57.585938 184.148438 C 58.554688 183.492188 59.527344 182.832031 60.5 182.171875 C 64.296875 179.589844 68.113281 177.039062 71.9375 174.496094 C 75.003906 172.453125 78.058594 170.390625 81.109375 168.324219 C 81.394531 168.128906 81.683594 167.9375 81.980469 167.738281 C 82.816406 167.171875 83.65625 166.601562 84.492188 166.035156 C 84.976562 165.707031 85.460938 165.378906 85.957031 165.042969 C 86.300781 164.789062 86.644531 164.535156 87 164.273438 C 87 164.105469 87 163.933594 87 163.757812 C 83.066406 163.757812 79.136719 163.757812 75.085938 163.757812 C 78.632812 160.210938 82.285156 156.832031 86.1875 153.683594 C 88.257812 152.015625 90.230469 150.28125 92.175781 148.46875 C 94.5625 146.25 97.03125 144.167969 99.566406 142.125 C 101.550781 140.484375 103.441406 138.746094 105.332031 137.003906 C 106.898438 135.570312 108.5 134.183594 110.113281 132.808594 C 110.347656 132.589844 110.578125 132.371094 110.820312 132.144531 C 110.820312 131.976562 110.820312 131.804688 110.820312 131.628906 C 106.546875 131.628906 102.273438 131.628906 97.871094 131.628906 C 97.871094 131.285156 97.871094 130.945312 97.871094 130.589844 C 98.332031 130.378906 98.332031 130.378906 98.804688 130.160156 C 99.890625 129.582031 100.691406 128.992188 101.609375 128.179688 C 101.917969 127.910156 102.226562 127.636719 102.546875 127.359375 C 102.871094 127.066406 103.199219 126.777344 103.535156 126.476562 C 104.234375 125.863281 104.933594 125.25 105.632812 124.636719 C 105.984375 124.332031 106.332031 124.023438 106.695312 123.707031 C 108.164062 122.421875 109.652344 121.160156 111.144531 119.902344 C 111.414062 119.671875 111.6875 119.441406 111.972656 119.203125 C 112.519531 118.738281 113.070312 118.277344 113.617188 117.8125 C 115.019531 116.632812 116.414062 115.449219 117.808594 114.265625 C 118.371094 113.792969 118.933594 113.316406 119.492188 112.84375 C 119.769531 112.605469 120.046875 112.371094 120.335938 112.128906 C 121.597656 111.0625 121.597656 111.0625 122.859375 109.992188 C 123.136719 109.757812 123.414062 109.523438 123.699219 109.277344 C 124.261719 108.804688 124.820312 108.328125 125.382812 107.855469 C 126.792969 106.660156 128.199219 105.46875 129.609375 104.273438 C 133.339844 101.105469 137.089844 97.960938 140.855469 94.835938 C 137.003906 84.054688 123.339844 74.886719 113.527344 69.984375 C 84.507812 56.285156 50.167969 62.199219 27.847656 85.453125 Z M 27.847656 85.453125 "/>
<path style=" stroke:none;fill-rule:nonzero;fill:rgb(0.392157%,76.078433%,2.745098%);fill-opacity:1;" d="M 120.140625 84.46875 C 120.582031 84.78125 121.019531 85.097656 121.476562 85.417969 C 123.589844 86.9375 123.589844 86.9375 124.28125 87.578125 C 124.28125 87.921875 124.28125 88.261719 124.28125 88.617188 C 123.710938 88.597656 123.710938 88.597656 123.125 88.582031 C 119.5 88.488281 115.875 88.429688 112.25 88.414062 C 110.382812 88.40625 108.523438 88.382812 106.660156 88.324219 C 97.984375 87.675781 97.984375 87.675781 90.386719 90.800781 C 88.988281 92.371094 87.949219 94.054688 87.003906 95.925781 C 86.164062 97.492188 85.070312 98.796875 83.957031 100.179688 C 83.53125 100.730469 83.109375 101.28125 82.6875 101.835938 C 81.074219 103.945312 79.441406 106.046875 77.804688 108.144531 C 77.347656 108.738281 77.347656 108.738281 76.875 109.339844 C 76.246094 110.148438 75.621094 110.957031 74.992188 111.765625 C 73.167969 114.105469 71.347656 116.449219 69.527344 118.792969 C 67.980469 120.785156 66.433594 122.773438 64.878906 124.757812 C 64.5625 125.167969 64.246094 125.574219 63.917969 125.992188 C 63.320312 126.757812 62.722656 127.519531 62.125 128.285156 C 59.8125 131.253906 57.625 134.277344 55.410156 137.328125 C 61.730469 137.328125 68.054688 137.328125 74.570312 137.328125 C 72.683594 139.527344 70.898438 141.585938 68.859375 143.609375 C 68.621094 143.847656 68.382812 144.085938 68.136719 144.332031 C 67.621094 144.84375 67.109375 145.355469 66.59375 145.867188 C 65.777344 146.675781 64.964844 147.488281 64.152344 148.296875 C 62.425781 150.019531 60.699219 151.738281 58.96875 153.457031 C 56.960938 155.453125 54.953125 157.453125 52.949219 159.453125 C 52.152344 160.25 51.351562 161.042969 50.550781 161.835938 C 50.058594 162.328125 49.566406 162.820312 49.074219 163.308594 C 48.433594 163.949219 48.433594 163.949219 47.777344 164.597656 C 46.625 165.808594 45.578125 167.117188 44.535156 168.421875 C 48.976562 168.59375 53.421875 168.761719 58 168.9375 C 56.597656 171.042969 55.4375 172.675781 53.757812 174.476562 C 51.644531 176.785156 49.65625 179.171875 47.6875 181.601562 C 46.320312 183.28125 44.914062 184.921875 43.5 186.558594 C 40.414062 186.105469 38.410156 183.433594 36.25 181.375 C 35.851562 181.011719 35.449219 180.644531 35.039062 180.265625 C 25.515625 171.238281 18.890625 157.085938 17.605469 144.066406 C 17.550781 143.546875 17.496094 143.027344 17.4375 142.492188 C 15.886719 126.355469 19.917969 109.597656 30.035156 96.710938 C 30.71875 95.90625 31.40625 95.109375 32.105469 94.316406 C 32.484375 93.875 32.863281 93.433594 33.253906 92.976562 C 55.292969 67.792969 93.664062 64.671875 120.140625 84.46875 Z M 120.140625 84.46875 "/>
<path style=" stroke:none;fill-rule:nonzero;fill:rgb(0%,0%,0%);fill-opacity:1;" d="M 195.96875 104.96875 C 198.824219 107.59375 199.875 113.027344 201.175781 116.574219 C 201.5 117.457031 201.5 117.457031 201.832031 118.359375 C 202.523438 120.234375 203.214844 122.109375 203.902344 123.984375 C 207.710938 134.339844 207.710938 134.339844 211.582031 144.671875 C 211.753906 145.132812 211.925781 145.589844 212.105469 146.0625 C 212.261719 146.480469 212.417969 146.894531 212.582031 147.320312 C 212.789062 147.863281 212.789062 147.863281 212.996094 148.417969 C 213.292969 149.253906 213.292969 149.253906 213.871094 149.765625 C 213.980469 149.457031 214.09375 149.148438 214.210938 148.832031 C 215.382812 145.613281 216.5625 142.390625 217.738281 139.171875 C 218.175781 137.972656 218.617188 136.773438 219.050781 135.574219 C 219.683594 133.84375 220.316406 132.113281 220.949219 130.382812 C 221.144531 129.851562 221.335938 129.320312 221.535156 128.773438 C 225.628906 117.625 225.628906 117.625 228.953125 115.628906 C 231.753906 114.613281 234.808594 114.542969 237.59375 115.59375 C 240.832031 118.464844 242.144531 122.027344 243.554688 126.007812 C 243.851562 126.832031 243.851562 126.832031 244.15625 127.675781 C 244.792969 129.421875 245.417969 131.171875 246.042969 132.921875 C 246.671875 134.671875 247.304688 136.421875 247.9375 138.171875 C 248.328125 139.257812 248.71875 140.34375 249.105469 141.429688 C 250.054688 144.078125 251.046875 146.675781 252.191406 149.246094 C 252.316406 148.914062 252.441406 148.578125 252.570312 148.234375 C 253.769531 145.023438 254.972656 141.808594 256.175781 138.59375 C 256.792969 136.941406 257.410156 135.292969 258.027344 133.640625 C 258.265625 133.011719 258.5 132.378906 258.746094 131.726562 C 258.980469 131.09375 259.21875 130.460938 259.460938 129.808594 C 260.183594 127.886719 260.910156 125.964844 261.636719 124.046875 C 262.597656 121.496094 263.527344 118.9375 264.433594 116.371094 C 264.65625 115.757812 264.878906 115.140625 265.109375 114.511719 C 265.527344 113.355469 265.933594 112.199219 266.332031 111.035156 C 267.625 107.519531 269.050781 105.445312 272.386719 103.644531 C 274.886719 102.808594 277.03125 102.96875 279.539062 103.707031 C 281.679688 104.96875 283.175781 106.265625 284.460938 108.40625 C 285.421875 112.351562 284.785156 115.890625 283.347656 119.609375 C 283.191406 120.035156 283.035156 120.464844 282.871094 120.902344 C 282.351562 122.3125 281.820312 123.714844 281.289062 125.117188 C 280.914062 126.117188 280.542969 127.117188 280.171875 128.113281 C 279.382812 130.246094 278.585938 132.371094 277.785156 134.5 C 276.503906 137.914062 275.234375 141.332031 273.96875 144.75 C 271.910156 150.3125 269.839844 155.867188 267.757812 161.421875 C 266.960938 163.550781 266.167969 165.679688 265.375 167.808594 C 264.792969 169.375 264.203125 170.9375 263.617188 172.503906 C 263.425781 173.023438 263.230469 173.539062 263.035156 174.074219 C 261.902344 177.054688 260.792969 179.359375 258.144531 181.28125 C 254.847656 182.398438 251.472656 182.546875 248.308594 181.019531 C 245.359375 178.292969 244.214844 175.617188 242.933594 171.886719 C 242.742188 171.34375 242.550781 170.796875 242.355469 170.238281 C 241.917969 168.984375 241.480469 167.734375 241.046875 166.480469 C 240.328125 164.410156 239.597656 162.34375 238.867188 160.277344 C 238.195312 158.390625 237.53125 156.5 236.863281 154.613281 C 236.53125 153.671875 236.195312 152.726562 235.863281 151.785156 C 235.390625 150.449219 234.921875 149.113281 234.453125 147.777344 C 234.238281 147.171875 234.238281 147.171875 234.015625 146.550781 C 233.464844 144.96875 233.03125 143.679688 233.03125 141.992188 C 232.6875 141.992188 232.347656 141.992188 231.996094 141.992188 C 231.859375 142.652344 231.722656 143.3125 231.585938 143.992188 C 230.976562 146.71875 230.128906 149.332031 229.230469 151.976562 C 229.066406 152.472656 228.898438 152.964844 228.726562 153.476562 C 228.203125 155.046875 227.671875 156.617188 227.140625 158.1875 C 226.445312 160.25 225.75 162.316406 225.054688 164.378906 C 224.890625 164.875 224.722656 165.367188 224.550781 165.875 C 223.492188 169.03125 222.496094 172.195312 221.585938 175.398438 C 220.585938 178.214844 219.238281 179.914062 216.691406 181.402344 C 213.9375 182.472656 210.882812 182.429688 208.078125 181.53125 C 204.421875 179.667969 203.128906 176.035156 201.847656 172.398438 C 201.699219 171.980469 201.546875 171.5625 201.390625 171.132812 C 201.066406 170.234375 200.742188 169.335938 200.421875 168.4375 C 199.910156 167.003906 199.394531 165.570312 198.878906 164.140625 C 198.347656 162.667969 197.8125 161.195312 197.285156 159.722656 C 195.816406 155.652344 194.324219 151.59375 192.8125 147.539062 C 192.410156 146.457031 192.011719 145.378906 191.609375 144.296875 C 190.207031 140.503906 188.785156 136.71875 187.335938 132.941406 C 186.5625 130.910156 185.789062 128.875 185.019531 126.839844 C 184.644531 125.851562 184.265625 124.867188 183.882812 123.882812 C 183.351562 122.503906 182.824219 121.121094 182.304688 119.738281 C 182.144531 119.332031 181.984375 118.925781 181.820312 118.507812 C 180.535156 115.0625 180.253906 112.023438 181.277344 108.46875 C 182.609375 106.191406 184.347656 104.191406 186.902344 103.292969 C 189.929688 102.820312 193.398438 103.21875 195.96875 104.96875 Z M 195.96875 104.96875 "/>
<path style=" stroke:none;fill-rule:nonzero;fill:rgb(0%,0%,0%);fill-opacity:1;" d="M 437.578125 108.824219 C 438.09375 109.167969 438.605469 109.511719 439.132812 109.863281 C 439.335938 109.230469 439.539062 108.601562 439.746094 107.953125 C 440.816406 105.136719 442.332031 103.679688 444.925781 102.152344 C 448.136719 101.207031 450.816406 101.480469 453.828125 102.929688 C 455.863281 104.773438 457.078125 106.464844 457.449219 109.195312 C 457.523438 110.925781 457.53125 112.648438 457.515625 114.382812 C 457.523438 115.371094 457.523438 115.371094 457.527344 116.375 C 457.53125 118.171875 457.527344 119.96875 457.519531 121.761719 C 457.511719 123.644531 457.515625 125.53125 457.515625 127.414062 C 457.519531 130.574219 457.511719 133.734375 457.5 136.898438 C 457.484375 140.546875 457.484375 144.199219 457.492188 147.847656 C 457.496094 151.367188 457.492188 154.882812 457.484375 158.402344 C 457.484375 159.898438 457.484375 161.390625 457.484375 162.886719 C 457.488281 164.972656 457.476562 167.0625 457.46875 169.148438 C 457.46875 170.074219 457.46875 170.074219 457.472656 171.019531 C 457.445312 174.414062 457.316406 177.015625 454.925781 179.636719 C 451.8125 182.0625 449.199219 182.273438 445.347656 181.894531 C 443.125 181.21875 441.6875 179.988281 440.492188 178.007812 C 439.859375 176.640625 439.453125 175.5625 439.132812 174.121094 C 438.894531 174.347656 438.65625 174.574219 438.410156 174.804688 C 431.132812 181.457031 423.390625 183.996094 413.671875 183.632812 C 410.769531 183.457031 408.183594 182.960938 405.472656 181.894531 C 404.972656 181.71875 404.46875 181.542969 403.953125 181.359375 C 394.710938 177.871094 388.136719 170.84375 383.945312 162.046875 C 383.269531 160.386719 382.699219 158.730469 382.171875 157.019531 C 382.003906 156.511719 381.839844 156.003906 381.671875 155.476562 C 378.507812 143.71875 380.132812 130.386719 385.796875 119.707031 C 386.886719 117.871094 388.078125 116.1875 389.417969 114.527344 C 389.898438 113.921875 389.898438 113.921875 390.386719 113.304688 C 395.3125 107.40625 402.480469 103.179688 410.132812 102.089844 C 410.523438 102.03125 410.910156 101.976562 411.308594 101.917969 C 420.886719 100.691406 429.777344 103.171875 437.578125 108.824219 Z M 403.378906 125.152344 C 398.375 131.539062 397.175781 138.710938 397.707031 146.65625 C 398.683594 153.066406 401.371094 159.15625 406.675781 163.09375 C 411.898438 166.429688 417.25 167.71875 423.40625 166.625 C 429.199219 165.097656 433.273438 162.007812 436.542969 157.019531 C 440.613281 149.933594 441.097656 141.90625 439.082031 134.125 C 437.3125 128.019531 433.355469 123.105469 427.773438 120.03125 C 419.109375 116.128906 409.8125 118.433594 403.378906 125.152344 Z M 403.378906 125.152344 "/>
<path style=" stroke:none;fill-rule:nonzero;fill:rgb(0%,0%,0%);fill-opacity:1;" d="M 312.453125 74.460938 C 314.382812 76.160156 315.589844 77.882812 316.402344 80.324219 C 316.464844 81.378906 316.496094 82.4375 316.511719 83.496094 C 316.527344 84.476562 316.527344 84.476562 316.542969 85.476562 C 316.550781 86.191406 316.558594 86.902344 316.566406 87.617188 C 316.578125 88.347656 316.589844 89.078125 316.601562 89.808594 C 316.628906 91.726562 316.652344 93.644531 316.679688 95.566406 C 316.707031 97.523438 316.734375 99.484375 316.761719 101.441406 C 316.816406 105.285156 316.871094 109.128906 316.921875 112.972656 C 317.128906 112.726562 317.335938 112.476562 317.546875 112.222656 C 317.824219 111.898438 318.097656 111.574219 318.378906 111.238281 C 318.652344 110.917969 318.921875 110.59375 319.199219 110.261719 C 323.917969 105.027344 331.027344 102.234375 337.894531 101.601562 C 344.628906 101.367188 351.339844 102.160156 356.667969 106.558594 C 364.175781 113.730469 365.503906 124.625 365.78125 134.523438 C 365.8125 136.738281 365.8125 138.949219 365.804688 141.160156 C 365.804688 142.125 365.808594 143.089844 365.808594 144.050781 C 365.8125 146.046875 365.808594 148.039062 365.800781 150.03125 C 365.792969 152.582031 365.796875 155.128906 365.808594 157.675781 C 365.8125 159.65625 365.8125 161.632812 365.808594 163.609375 C 365.804688 164.550781 365.808594 165.492188 365.8125 166.429688 C 365.816406 167.738281 365.808594 169.046875 365.800781 170.355469 C 365.804688 170.738281 365.804688 171.121094 365.808594 171.515625 C 365.765625 175.226562 364.582031 178.171875 361.972656 180.859375 C 359.246094 182.1875 356.667969 182.175781 353.6875 181.894531 C 350.828125 180.90625 349.296875 179.3125 347.945312 176.628906 C 347.34375 174.742188 347.324219 172.964844 347.324219 171.003906 C 347.320312 170.59375 347.320312 170.183594 347.316406 169.761719 C 347.308594 168.871094 347.304688 167.980469 347.300781 167.09375 C 347.296875 165.679688 347.285156 164.269531 347.273438 162.855469 C 347.25 159.851562 347.230469 156.847656 347.214844 153.847656 C 347.195312 150.375 347.175781 146.902344 347.144531 143.433594 C 347.132812 142.050781 347.128906 140.667969 347.125 139.28125 C 347.148438 129.683594 347.148438 129.683594 342.617188 121.507812 C 339.707031 118.777344 336.042969 118.445312 332.238281 118.542969 C 327.628906 118.984375 323.511719 120.84375 320.253906 124.160156 C 316.484375 128.933594 316.703125 134.765625 316.726562 140.53125 C 316.730469 141.941406 316.722656 143.347656 316.714844 144.757812 C 316.695312 148.753906 316.695312 152.753906 316.695312 156.753906 C 316.695312 159.207031 316.6875 161.664062 316.671875 164.121094 C 316.664062 165.5 316.671875 166.882812 316.675781 168.261719 C 316.671875 169.117188 316.667969 169.96875 316.660156 170.820312 C 316.667969 171.199219 316.671875 171.578125 316.675781 171.96875 C 316.636719 174.785156 315.875 176.945312 314.332031 179.304688 C 311.667969 181.839844 309.453125 182.046875 305.90625 182.007812 C 303.371094 181.804688 301.941406 180.925781 300.222656 179.109375 C 298.492188 176.511719 298.128906 174.328125 298.144531 171.246094 C 298.140625 170.859375 298.140625 170.46875 298.136719 170.066406 C 298.132812 168.765625 298.132812 167.460938 298.136719 166.160156 C 298.132812 165.226562 298.132812 164.289062 298.128906 163.355469 C 298.121094 160.816406 298.121094 158.28125 298.121094 155.742188 C 298.125 153.625 298.121094 151.507812 298.117188 149.386719 C 298.113281 144.390625 298.113281 139.390625 298.117188 134.394531 C 298.117188 129.238281 298.113281 124.082031 298.101562 118.925781 C 298.09375 114.5 298.089844 110.074219 298.089844 105.644531 C 298.089844 103 298.089844 100.359375 298.082031 97.714844 C 298.078125 95.226562 298.078125 92.742188 298.085938 90.253906 C 298.085938 89.34375 298.085938 88.429688 298.078125 87.519531 C 298.074219 86.273438 298.078125 85.027344 298.085938 83.78125 C 298.082031 83.421875 298.078125 83.0625 298.074219 82.691406 C 298.105469 79.894531 298.824219 77.8125 300.703125 75.730469 C 301.003906 75.484375 301.304688 75.234375 301.613281 74.980469 C 301.910156 74.726562 302.210938 74.472656 302.515625 74.207031 C 305.480469 72.25 309.449219 72.957031 312.453125 74.460938 Z M 312.453125 74.460938 "/>
<path style=" stroke:none;fill-rule:nonzero;fill:rgb(0.392157%,76.078433%,2.745098%);fill-opacity:1;" d="M 674.402344 101.472656 C 683.960938 101.027344 692.761719 105.078125 699.863281 111.238281 C 706.96875 117.726562 712.113281 127.40625 712.660156 137.117188 C 712.671875 138.121094 712.671875 138.121094 712.683594 139.140625 C 712.703125 140.144531 712.703125 140.144531 712.726562 141.164062 C 712.511719 143.496094 711.839844 144.773438 710.207031 146.421875 C 707.195312 148.792969 707.195312 148.792969 704.789062 148.792969 C 704.355469 148.792969 703.921875 148.792969 703.476562 148.792969 C 702.761719 148.789062 702.761719 148.789062 702.035156 148.789062 C 701.535156 148.789062 701.035156 148.789062 700.519531 148.789062 C 698.859375 148.789062 697.203125 148.785156 695.542969 148.78125 C 694.394531 148.777344 693.246094 148.777344 692.101562 148.777344 C 689.074219 148.773438 686.046875 148.769531 683.023438 148.765625 C 679.9375 148.757812 676.851562 148.757812 673.765625 148.753906 C 667.707031 148.75 661.648438 148.738281 655.59375 148.730469 C 655.984375 149.800781 656.378906 150.867188 656.777344 151.933594 C 656.996094 152.53125 657.214844 153.125 657.441406 153.738281 C 659.683594 158.96875 663.851562 162.664062 669.054688 164.792969 C 674.609375 166.945312 681.675781 167.40625 687.363281 165.414062 C 688.5 164.898438 689.589844 164.351562 690.6875 163.765625 C 698.285156 159.726562 698.285156 159.726562 702.714844 160.648438 C 705.109375 161.5625 706.257812 163.027344 707.378906 165.3125 C 707.839844 168.15625 707.710938 170.8125 706.046875 173.269531 C 700.464844 179.695312 691.207031 182.496094 683.039062 183.449219 C 669.769531 184.152344 658.539062 181.585938 648.34375 172.566406 C 642.785156 166.394531 639.394531 159.539062 637.984375 151.320312 C 637.917969 150.957031 637.851562 150.589844 637.78125 150.214844 C 636.121094 139.59375 638.191406 127.65625 644.109375 118.65625 C 645.875 116.242188 647.785156 114.050781 649.894531 111.933594 C 650.214844 111.613281 650.53125 111.289062 650.855469 110.957031 C 657.421875 104.734375 665.5625 102.199219 674.402344 101.472656 Z M 658.882812 125.300781 C 657.523438 127.519531 655.59375 131.042969 655.59375 133.699219 C 668.066406 133.699219 680.542969 133.699219 693.394531 133.699219 C 692.804688 128.972656 691.65625 126.035156 688.214844 122.816406 C 679.269531 116.199219 666.265625 116.15625 658.882812 125.300781 Z M 658.882812 125.300781 "/>
<path style=" stroke:none;fill-rule:nonzero;fill:rgb(0.392157%,76.078433%,2.745098%);fill-opacity:1;" d="M 577.65625 104.402344 C 578.132812 104.398438 578.605469 104.394531 579.09375 104.390625 C 580.648438 104.378906 582.203125 104.382812 583.757812 104.386719 C 584.84375 104.382812 585.933594 104.378906 587.019531 104.375 C 589.292969 104.371094 591.566406 104.375 593.839844 104.382812 C 596.75 104.390625 599.65625 104.378906 602.5625 104.359375 C 604.808594 104.347656 607.050781 104.347656 609.292969 104.355469 C 610.367188 104.355469 611.4375 104.351562 612.511719 104.34375 C 614.011719 104.332031 615.511719 104.339844 617.011719 104.351562 C 617.667969 104.34375 617.667969 104.34375 618.339844 104.335938 C 621.5 104.386719 623.621094 105.269531 626.074219 107.269531 C 627.945312 109.59375 627.894531 111.652344 627.800781 114.539062 C 627.285156 119.152344 623.855469 122.574219 621.066406 126.089844 C 620.003906 127.441406 618.960938 128.804688 617.917969 130.171875 C 615.503906 133.316406 613.070312 136.445312 610.632812 139.574219 C 608.410156 142.433594 606.195312 145.304688 603.988281 148.179688 C 603.167969 149.25 602.347656 150.316406 601.523438 151.382812 C 599.097656 154.527344 596.699219 157.6875 594.320312 160.863281 C 594.035156 161.246094 593.753906 161.625 593.457031 162.015625 C 592.765625 162.941406 592.074219 163.867188 591.378906 164.792969 C 591.753906 164.796875 592.128906 164.800781 592.515625 164.800781 C 596.058594 164.832031 599.601562 164.871094 603.144531 164.914062 C 604.964844 164.9375 606.785156 164.960938 608.605469 164.972656 C 610.703125 164.988281 612.796875 165.019531 614.894531 165.046875 C 615.871094 165.050781 615.871094 165.050781 616.863281 165.054688 C 620.976562 165.125 623.675781 165.445312 627.015625 167.96875 C 628.519531 169.949219 629.085938 171.636719 629.183594 174.121094 C 628.820312 176.671875 628.035156 178.632812 626.074219 180.339844 C 624.238281 181.566406 622.972656 181.957031 620.816406 181.972656 C 620.160156 181.976562 620.160156 181.976562 619.492188 181.980469 C 619.011719 181.984375 618.53125 181.984375 618.039062 181.988281 C 617.28125 181.992188 617.28125 181.992188 616.507812 181.996094 C 614.832031 182.007812 613.160156 182.011719 611.484375 182.019531 C 610.914062 182.019531 610.339844 182.023438 609.753906 182.023438 C 606.726562 182.035156 603.699219 182.042969 600.675781 182.046875 C 597.550781 182.054688 594.425781 182.070312 591.296875 182.09375 C 588.894531 182.105469 586.492188 182.109375 584.089844 182.113281 C 582.9375 182.113281 581.785156 182.121094 580.632812 182.128906 C 579.019531 182.140625 577.40625 182.140625 575.796875 182.136719 C 575.082031 182.148438 575.082031 182.148438 574.355469 182.160156 C 571.476562 182.136719 569.839844 181.738281 567.558594 179.820312 C 565.636719 177.847656 565.300781 176.148438 565.164062 173.472656 C 565.300781 169.808594 566.398438 167.664062 568.59375 164.792969 C 568.996094 164.265625 569.398438 163.734375 569.8125 163.1875 C 571.015625 161.632812 572.242188 160.101562 573.46875 158.566406 C 574.9375 156.726562 576.375 154.863281 577.820312 153.003906 C 578.433594 152.210938 579.050781 151.417969 579.664062 150.625 C 579.972656 150.226562 580.28125 149.832031 580.601562 149.421875 C 581.542969 148.207031 582.488281 146.992188 583.433594 145.78125 C 586.542969 141.777344 589.652344 137.773438 592.738281 133.75 C 593.605469 132.621094 594.472656 131.492188 595.347656 130.363281 C 595.578125 130.066406 595.804688 129.765625 596.042969 129.460938 C 596.675781 128.640625 597.308594 127.820312 597.945312 127 C 598.820312 125.839844 599.675781 124.679688 600.515625 123.496094 C 600.746094 123.171875 600.976562 122.851562 601.210938 122.519531 C 601.386719 122.277344 601.558594 122.03125 601.738281 121.78125 C 601.382812 121.78125 601.027344 121.777344 600.664062 121.777344 C 596.96875 121.753906 593.269531 121.71875 589.574219 121.675781 C 588.195312 121.65625 586.816406 121.648438 585.441406 121.640625 C 583.453125 121.628906 581.46875 121.605469 579.484375 121.578125 C 578.871094 121.578125 578.257812 121.578125 577.628906 121.578125 C 573.398438 121.503906 570.402344 120.996094 567.300781 117.894531 C 566.148438 115.203125 566.144531 112.746094 566.523438 109.863281 C 567.636719 107.257812 569.109375 106.292969 571.558594 105.113281 C 573.578125 104.371094 575.523438 104.386719 577.65625 104.402344 Z M 577.65625 104.402344 "/>
<path style=" stroke:none;fill-rule:nonzero;fill:rgb(0%,0%,0%);fill-opacity:1;" d="M 496.816406 87.03125 C 499.214844 88.445312 500.734375 89.953125 501.566406 92.679688 C 501.820312 93.941406 501.851562 95.09375 501.84375 96.378906 C 501.839844 97.105469 501.839844 97.105469 501.835938 97.847656 C 501.832031 98.601562 501.832031 98.601562 501.824219 99.367188 C 501.824219 99.878906 501.820312 100.386719 501.816406 100.914062 C 501.8125 102.167969 501.804688 103.425781 501.792969 104.679688 C 502.132812 104.671875 502.476562 104.664062 502.828125 104.65625 C 504.390625 104.621094 505.957031 104.601562 507.519531 104.582031 C 508.058594 104.570312 508.597656 104.558594 509.152344 104.542969 C 512.890625 104.507812 515.632812 104.722656 518.523438 107.304688 C 519.929688 109.753906 520.6875 112.339844 520.257812 115.175781 C 519.410156 117.828125 518.046875 119.183594 515.773438 120.746094 C 514.160156 121.285156 513.042969 121.324219 511.351562 121.3125 C 510.792969 121.3125 510.238281 121.308594 509.667969 121.308594 C 509.085938 121.304688 508.507812 121.300781 507.910156 121.296875 C 507.324219 121.292969 506.738281 121.289062 506.132812 121.289062 C 504.6875 121.28125 503.238281 121.273438 501.792969 121.261719 C 501.8125 126.699219 501.84375 132.136719 501.886719 137.574219 C 501.90625 140.097656 501.925781 142.625 501.933594 145.148438 C 501.941406 147.585938 501.957031 150.019531 501.984375 152.457031 C 501.992188 153.386719 501.996094 154.316406 501.996094 155.246094 C 501.996094 156.546875 502.011719 157.847656 502.027344 159.148438 C 502.023438 159.535156 502.023438 159.921875 502.019531 160.316406 C 502.054688 162.089844 502.179688 163.066406 503.265625 164.5 C 505.316406 165.992188 507.09375 165.917969 509.558594 165.828125 C 510.074219 165.660156 510.585938 165.488281 511.113281 165.3125 C 513.085938 165.046875 514.96875 164.867188 516.75 165.855469 C 517.867188 166.773438 518.75 167.640625 519.398438 168.9375 C 519.652344 171.710938 519.722656 174.28125 518.75 176.90625 C 513.96875 181.476562 508.390625 182.09375 502.121094 182.007812 C 496.933594 181.835938 492.335938 180.515625 488.496094 176.9375 C 484.441406 172.582031 483.582031 167.613281 483.609375 161.855469 C 483.609375 161.417969 483.609375 160.976562 483.609375 160.523438 C 483.609375 159.074219 483.613281 157.628906 483.617188 156.183594 C 483.617188 155.175781 483.617188 154.167969 483.621094 153.164062 C 483.621094 150.519531 483.625 147.878906 483.632812 145.234375 C 483.636719 142.535156 483.640625 139.835938 483.640625 137.136719 C 483.648438 131.847656 483.65625 126.554688 483.667969 121.261719 C 482.769531 121.289062 482.769531 121.289062 481.851562 121.316406 C 481.054688 121.332031 480.257812 121.347656 479.460938 121.359375 C 479.066406 121.375 478.671875 121.386719 478.265625 121.398438 C 475.34375 121.4375 473.148438 120.976562 470.90625 118.929688 C 468.726562 116.128906 468.222656 113.863281 468.648438 110.378906 C 470.050781 107.632812 471.910156 105.664062 474.863281 104.679688 C 475.554688 104.640625 476.25 104.625 476.941406 104.628906 C 477.53125 104.632812 477.53125 104.632812 478.128906 104.632812 C 478.742188 104.640625 478.742188 104.640625 479.363281 104.648438 C 479.984375 104.652344 479.984375 104.652344 480.613281 104.65625 C 481.632812 104.660156 482.648438 104.671875 483.667969 104.679688 C 483.660156 104.335938 483.652344 103.992188 483.644531 103.636719 C 483.609375 102.0625 483.589844 100.488281 483.570312 98.914062 C 483.558594 98.371094 483.542969 97.832031 483.53125 97.269531 C 483.503906 94.347656 483.511719 92.152344 485.222656 89.652344 C 488.542969 86.582031 492.421875 85.292969 496.816406 87.03125 Z M 496.816406 87.03125 "/>
<path style=" stroke:none;fill-rule:nonzero;fill:rgb(0.392157%,76.078433%,2.745098%);fill-opacity:1;" d="M 150.691406 94.316406 C 151.035156 94.316406 151.375 94.316406 151.730469 94.316406 C 162.792969 115.449219 165.710938 138.273438 158.640625 161.230469 C 152.1875 181.214844 137.207031 198.554688 118.59375 208.121094 C 113.214844 210.800781 107.859375 213.109375 102.015625 214.542969 C 101.632812 214.644531 101.25 214.742188 100.851562 214.847656 C 89.070312 217.824219 74.449219 218.191406 62.660156 215.0625 C 62.25 214.953125 61.839844 214.847656 61.417969 214.742188 C 53.671875 212.699219 46.238281 209.882812 39.355469 205.734375 C 39.355469 205.390625 39.355469 205.046875 39.355469 204.695312 C 40.742188 204.070312 42.136719 203.457031 43.53125 202.851562 C 43.921875 202.671875 44.308594 202.496094 44.710938 202.3125 C 48 200.902344 50.125 200.960938 53.527344 202.246094 C 54.128906 202.507812 54.726562 202.773438 55.34375 203.042969 C 72.132812 210.082031 91.988281 209.253906 108.726562 202.496094 C 126.546875 194.941406 140.523438 181.132812 148.105469 163.238281 C 154.722656 146.246094 155.902344 126.28125 148.652344 109.230469 C 147.980469 107.75 147.3125 106.269531 146.582031 104.816406 C 145.859375 103.3125 145.449219 102.386719 145.804688 100.730469 C 146.660156 99.316406 147.585938 98.03125 148.621094 96.746094 C 148.984375 96.289062 149.347656 95.828125 149.722656 95.359375 C 150.203125 94.84375 150.203125 94.84375 150.691406 94.316406 Z M 150.691406 94.316406 "/>
<path style=" stroke:none;fill-rule:nonzero;fill:rgb(0.392157%,76.078433%,2.745098%);fill-opacity:1;" d="M 549.109375 104.519531 C 551.613281 106.722656 552.683594 108.652344 553.058594 111.933594 C 553.136719 113.914062 553.140625 115.894531 553.140625 117.875 C 553.144531 118.765625 553.144531 118.765625 553.148438 119.675781 C 553.15625 121.640625 553.160156 123.601562 553.164062 125.566406 C 553.167969 126.933594 553.171875 128.296875 553.171875 129.664062 C 553.179688 132.164062 553.179688 134.664062 553.183594 137.164062 C 553.183594 140.832031 553.195312 144.5 553.210938 148.167969 C 553.222656 151.355469 553.226562 154.542969 553.226562 157.730469 C 553.226562 159.082031 553.230469 160.433594 553.238281 161.785156 C 553.246094 163.675781 553.246094 165.570312 553.242188 167.460938 C 553.25 168.292969 553.25 168.292969 553.257812 169.144531 C 553.234375 173.132812 552.851562 176.644531 550.242188 179.789062 C 547.316406 182.148438 544.828125 182.230469 541.148438 181.894531 C 538.410156 180.980469 537.109375 179.503906 535.453125 177.230469 C 534.933594 175.671875 534.863281 174.625 534.855469 173 C 534.851562 172.445312 534.847656 171.890625 534.839844 171.320312 C 534.839844 170.710938 534.835938 170.101562 534.835938 169.476562 C 534.832031 168.835938 534.824219 168.195312 534.820312 167.535156 C 534.808594 165.410156 534.800781 163.285156 534.792969 161.160156 C 534.789062 160.425781 534.789062 159.695312 534.785156 158.960938 C 534.773438 155.914062 534.761719 152.867188 534.757812 149.816406 C 534.75 145.453125 534.730469 141.089844 534.703125 136.726562 C 534.683594 133.65625 534.671875 130.585938 534.667969 127.515625 C 534.667969 125.683594 534.660156 123.851562 534.644531 122.019531 C 534.625 119.972656 534.628906 117.925781 534.632812 115.878906 C 534.625 115.277344 534.617188 114.671875 534.605469 114.050781 C 534.632812 110.460938 535.097656 107.941406 537.523438 105.199219 C 541.027344 102.546875 545.246094 102.585938 549.109375 104.519531 Z M 549.109375 104.519531 "/>
<path style=" stroke:none;fill-rule:nonzero;fill:rgb(0.392157%,76.078433%,2.745098%);fill-opacity:1;" d="M 758.375 70.699219 C 764.339844 74.472656 768.132812 79.664062 769.90625 86.476562 C 770.535156 94.339844 769.386719 100.695312 764.394531 106.949219 C 760.917969 110.777344 755.609375 114.15625 750.347656 114.617188 C 742.113281 114.855469 736.15625 113.730469 729.804688 108.113281 C 724.824219 102.453125 722.691406 97.113281 722.769531 89.527344 C 723.199219 83.648438 725.597656 78.0625 729.847656 73.9375 C 737.960938 67.179688 749 65.3125 758.375 70.699219 Z M 734.203125 76.53125 C 730.425781 79.988281 727.914062 84.695312 727.46875 89.820312 C 727.351562 95.777344 729.25 100.421875 733.289062 104.785156 C 737.625 108.929688 741.75 110.191406 747.636719 110.105469 C 752.882812 109.875 756.269531 108.050781 760.058594 104.417969 C 764.039062 100.03125 765.65625 95.449219 765.542969 89.585938 C 764.917969 83.988281 761.902344 79.195312 757.609375 75.660156 C 750.160156 70.671875 741.242188 71.128906 734.203125 76.53125 Z M 734.203125 76.53125 "/>
<path style=" stroke:none;fill-rule:nonzero;fill:rgb(0.392157%,76.078433%,2.745098%);fill-opacity:1;" d="M 550.46875 77.214844 C 551.648438 78.207031 552.375 78.953125 553.058594 80.324219 C 553.183594 81.941406 553.15625 83.5625 553.15625 85.183594 C 553.164062 85.628906 553.167969 86.078125 553.175781 86.539062 C 553.175781 86.972656 553.175781 87.402344 553.179688 87.851562 C 553.179688 88.246094 553.183594 88.640625 553.183594 89.046875 C 553.039062 90.339844 552.71875 91.148438 552.023438 92.242188 C 548.464844 94.429688 544.363281 94.898438 540.304688 94.023438 C 536.296875 92.90625 536.296875 92.90625 534.933594 91.207031 C 534.277344 89.234375 534.300781 87.367188 534.289062 85.3125 C 534.277344 84.921875 534.265625 84.527344 534.253906 84.125 C 534.238281 81.730469 534.429688 80.199219 535.96875 78.25 C 540.03125 75.335938 545.9375 75.324219 550.46875 77.214844 Z M 550.46875 77.214844 "/>
<path style=" stroke:none;fill-rule:nonzero;fill:rgb(0.392157%,76.078433%,2.745098%);fill-opacity:1;" d="M 750.132812 77.570312 C 750.699219 77.648438 751.265625 77.722656 751.847656 77.804688 C 753.691406 78.3125 754.691406 78.996094 756.054688 80.324219 C 756.347656 81.652344 756.347656 81.652344 756.054688 82.914062 C 755.246094 83.917969 755.246094 83.917969 753.984375 84.46875 C 753.136719 84.246094 752.289062 84.011719 751.457031 83.726562 C 748.53125 82.945312 745.613281 82.984375 742.882812 84.273438 C 741.050781 85.972656 739.667969 87.316406 739.304688 89.875 C 739.214844 92.507812 739.417969 94.226562 741.035156 96.386719 C 741.035156 96.730469 741.035156 97.074219 741.035156 97.425781 C 744.882812 98.984375 748.027344 99.59375 752.074219 98.363281 C 753.984375 97.941406 753.984375 97.941406 755.277344 98.492188 C 756.054688 99.496094 756.054688 99.496094 756.347656 100.761719 C 755.933594 102.632812 755.035156 103.136719 753.464844 104.160156 C 749.640625 105.4375 744.425781 105.335938 740.746094 103.644531 C 737.109375 101.460938 734.625 98.539062 733.492188 94.429688 C 732.804688 90.898438 733.191406 87.703125 734.824219 84.46875 C 737.503906 80.550781 740.5 78.429688 745.109375 77.402344 C 746.882812 77.199219 748.367188 77.308594 750.132812 77.570312 Z M 750.132812 77.570312 "/>
</g>
</svg>
